<svg xmlns="http://www.w3.org/2000/svg" version="1.1" xmlns:xlink="http://www.w3.org/1999/xlink" width="512" height="512" x="0" y="0" viewBox="0 0 24 24" style="enable-background:new 0 0 512 512" xml:space="preserve"><g><g fill="#000" fill-rule="evenodd" clip-rule="evenodd"><path d="M8.188 21.35A.5.5 0 0 0 9 20.96v-5.92a.5.5 0 0 0-.812-.39l-3.7 2.96a.5.5 0 0 0 0 .78zM15.812 2.65a.5.5 0 0 0-.812.39v5.92a.5.5 0 0 0 .812.39l3.7-2.96a.5.5 0 0 0 0-.78z" fill="#ffffff" opacity="1" data-original="#000000"></path><path d="M18 6a1 1 0 0 0-1-1H8a6 6 0 0 0-5.477 8.453 1 1 0 0 0 1.825-.818A4 4 0 0 1 8 7h9a1 1 0 0 0 1-1zM6 18a1 1 0 0 0 1 1h9a6 6 0 0 0 5.477-8.453 1 1 0 0 0-1.825.818A4 4 0 0 1 16 17H7a1 1 0 0 0-1 1z" fill="#ffffff" opacity="1" data-original="#000000"></path></g></g></svg>