<svg xmlns="http://www.w3.org/2000/svg" xmlns:xlink="http://www.w3.org/1999/xlink" viewBox="0 0 176.15 254.15"><defs><style>.cls-1,.cls-2,.cls-3{fill:none;}.cls-2{stroke:#b8873a;stroke-width:2.05px;}.cls-2,.cls-3{stroke-linecap:round;stroke-miterlimit:10;}.cls-3{stroke:#3d006e;stroke-width:1.03px;}.cls-4{fill:#b98737;}.cls-5{fill:#b8873a;}.cls-6{clip-path:url(#clip-path);}.cls-7{fill:#fff;}</style><clipPath id="clip-path" transform="translate(54.64 61.39)"><path class="cls-1" d="M66.7,33.61c0,15.55-24,48-31.12,57.28a2.49,2.49,0,0,1-3.95,0C24.49,81.59.51,49.16.51,33.61a33.1,33.1,0,1,1,66.19,0Z"/></clipPath></defs><g id="Layer_2" data-name="Layer 2"><g id="Layer_1-2" data-name="Layer 1"><path class="cls-2" d="M33.65,95.86c-2.86,17.94.69,24.72,1.16,36.88.24,6.2-1.61,11.53-2.35,17.54-.87,7,.84,14.16,1.92,21a55.87,55.87,0,0,1-.73,20.45" transform="translate(54.64 61.39)"/><path class="cls-3" d="M39.56,97.17l-4.83-4.84a1.58,1.58,0,0,0-2.24,0l-4.84,4.84a1.58,1.58,0,0,0,1.12,2.7h9.67A1.58,1.58,0,0,0,39.56,97.17Z" transform="translate(54.64 61.39)"/><path class="cls-3" d="M66.7,33.61c0,15.55-24,48-31.12,57.28a2.49,2.49,0,0,1-3.95,0C24.49,81.59.51,49.16.51,33.61a33.1,33.1,0,1,1,66.19,0Z" transform="translate(54.64 61.39)"/><path class="cls-4" d="M39.56,97.17l-4.83-4.84a1.58,1.58,0,0,0-2.24,0l-4.84,4.84a1.58,1.58,0,0,0,1.12,2.7h9.67A1.58,1.58,0,0,0,39.56,97.17Z" transform="translate(54.64 61.39)"/><path class="cls-5" d="M66.7,33.61c0,15.55-24,48-31.12,57.28a2.49,2.49,0,0,1-3.95,0C24.49,81.59.51,49.16.51,33.61a33.1,33.1,0,1,1,66.19,0Z" transform="translate(54.64 61.39)"/><g class="cls-6"><circle class="cls-7" cx="2.14" cy="2.14" r="2.14"/><circle class="cls-7" cx="13.6" cy="2.14" r="2.14"/><circle class="cls-7" cx="25.06" cy="2.14" r="2.14"/><circle class="cls-7" cx="36.52" cy="2.14" r="2.14"/><circle class="cls-7" cx="47.98" cy="2.14" r="2.14"/><circle class="cls-7" cx="59.44" cy="2.14" r="2.14"/><circle class="cls-7" cx="70.89" cy="2.14" r="2.14"/><path class="cls-7" d="M29.86-59.25a2.15,2.15,0,0,1-2.15,2.15,2.14,2.14,0,0,1-2.14-2.15,2.14,2.14,0,0,1,2.14-2.14,2.14,2.14,0,0,1,2.15,2.14" transform="translate(54.64 61.39)"/><circle class="cls-7" cx="2.14" cy="12.36" r="2.14"/><circle class="cls-7" cx="13.6" cy="12.36" r="2.14"/><circle class="cls-7" cx="25.06" cy="12.36" r="2.14"/><circle class="cls-7" cx="36.52" cy="12.36" r="2.14"/><circle class="cls-7" cx="47.98" cy="12.36" r="2.14"/><circle class="cls-7" cx="59.44" cy="12.36" r="2.14"/><circle class="cls-7" cx="70.89" cy="12.36" r="2.14"/><circle class="cls-7" cx="82.35" cy="12.36" r="2.14"/><circle class="cls-7" cx="2.14" cy="22.58" r="2.14"/><circle class="cls-7" cx="13.6" cy="22.58" r="2.14"/><circle class="cls-7" cx="25.06" cy="22.58" r="2.14"/><circle class="cls-7" cx="36.52" cy="22.58" r="2.14"/><circle class="cls-7" cx="47.98" cy="22.58" r="2.14"/><circle class="cls-7" cx="59.44" cy="22.58" r="2.14"/><circle class="cls-7" cx="70.89" cy="22.58" r="2.14"/><circle class="cls-7" cx="82.35" cy="22.58" r="2.14"/><circle class="cls-7" cx="2.14" cy="32.79" r="2.14"/><circle class="cls-7" cx="13.6" cy="32.79" r="2.14"/><circle class="cls-7" cx="25.06" cy="32.79" r="2.14"/><circle class="cls-7" cx="36.52" cy="32.79" r="2.14"/><circle class="cls-7" cx="47.98" cy="32.79" r="2.14"/><circle class="cls-7" cx="59.44" cy="32.79" r="2.14"/><circle class="cls-7" cx="70.89" cy="32.79" r="2.14"/><circle class="cls-7" cx="82.35" cy="32.79" r="2.14"/><circle class="cls-7" cx="2.14" cy="43.01" r="2.14"/><circle class="cls-7" cx="13.6" cy="43.01" r="2.14"/><circle class="cls-7" cx="25.06" cy="43.01" r="2.14"/><circle class="cls-7" cx="36.52" cy="43.01" r="2.14"/><circle class="cls-7" cx="47.98" cy="43.01" r="2.14"/><circle class="cls-7" cx="59.44" cy="43.01" r="2.14"/><circle class="cls-7" cx="70.89" cy="43.01" r="2.14"/><circle class="cls-7" cx="82.35" cy="43.01" r="2.14"/><circle class="cls-7" cx="2.14" cy="53.22" r="2.14"/><circle class="cls-7" cx="13.6" cy="53.22" r="2.14"/><circle class="cls-7" cx="25.06" cy="53.22" r="2.14"/><circle class="cls-7" cx="36.52" cy="53.22" r="2.14"/><circle class="cls-7" cx="47.98" cy="53.22" r="2.14"/><circle class="cls-7" cx="59.44" cy="53.22" r="2.14"/><circle class="cls-7" cx="70.89" cy="53.22" r="2.14"/><circle class="cls-7" cx="82.35" cy="53.22" r="2.14"/><circle class="cls-7" cx="2.14" cy="63.44" r="2.14"/><circle class="cls-7" cx="13.6" cy="63.44" r="2.14"/><circle class="cls-7" cx="25.06" cy="63.44" r="2.14"/><circle class="cls-7" cx="36.52" cy="63.44" r="2.14"/><circle class="cls-7" cx="47.98" cy="63.44" r="2.14"/><circle class="cls-7" cx="59.44" cy="63.44" r="2.14"/><circle class="cls-7" cx="70.89" cy="63.44" r="2.14"/><circle class="cls-7" cx="82.35" cy="63.44" r="2.14"/><circle class="cls-7" cx="2.14" cy="73.65" r="2.14"/><circle class="cls-7" cx="13.6" cy="73.65" r="2.14"/><circle class="cls-7" cx="25.06" cy="73.65" r="2.14"/><circle class="cls-7" cx="36.52" cy="73.65" r="2.14"/><circle class="cls-7" cx="47.98" cy="73.65" r="2.14"/><circle class="cls-7" cx="59.44" cy="73.65" r="2.14"/><circle class="cls-7" cx="70.89" cy="73.65" r="2.14"/><circle class="cls-7" cx="82.35" cy="73.65" r="2.14"/><circle class="cls-7" cx="2.14" cy="83.87" r="2.14"/><circle class="cls-7" cx="13.6" cy="83.87" r="2.14"/><circle class="cls-7" cx="25.06" cy="83.87" r="2.14"/><circle class="cls-7" cx="36.52" cy="83.87" r="2.14"/><circle class="cls-7" cx="47.98" cy="83.87" r="2.14"/><circle class="cls-7" cx="59.44" cy="83.87" r="2.14"/><circle class="cls-7" cx="70.89" cy="83.87" r="2.14"/><circle class="cls-7" cx="82.35" cy="83.87" r="2.14"/><circle class="cls-7" cx="2.14" cy="93.55" r="2.14"/><circle class="cls-7" cx="13.6" cy="93.55" r="2.14"/><circle class="cls-7" cx="25.06" cy="93.55" r="2.14"/><circle class="cls-7" cx="36.52" cy="93.55" r="2.14"/><circle class="cls-7" cx="47.98" cy="93.55" r="2.14"/><circle class="cls-7" cx="59.44" cy="93.55" r="2.14"/><circle class="cls-7" cx="70.89" cy="93.55" r="2.14"/><path class="cls-7" d="M29.86,32.16A2.15,2.15,0,1,1,27.71,30a2.15,2.15,0,0,1,2.15,2.14" transform="translate(54.64 61.39)"/><circle class="cls-7" cx="2.14" cy="103.77" r="2.14"/><circle class="cls-7" cx="13.6" cy="103.77" r="2.14"/><circle class="cls-7" cx="25.06" cy="103.77" r="2.14"/><circle class="cls-7" cx="36.52" cy="103.77" r="2.14"/><circle class="cls-7" cx="47.98" cy="103.77" r="2.14"/><circle class="cls-7" cx="59.44" cy="103.77" r="2.14"/><circle class="cls-7" cx="70.89" cy="103.77" r="2.14"/><circle class="cls-7" cx="82.35" cy="103.77" r="2.14"/><circle class="cls-7" cx="2.14" cy="113.98" r="2.14"/><circle class="cls-7" cx="13.6" cy="113.98" r="2.14"/><circle class="cls-7" cx="25.06" cy="113.98" r="2.14"/><circle class="cls-7" cx="36.52" cy="113.98" r="2.14"/><circle class="cls-7" cx="47.98" cy="113.98" r="2.14"/><circle class="cls-7" cx="59.44" cy="113.98" r="2.14"/><circle class="cls-7" cx="70.89" cy="113.98" r="2.14"/><circle class="cls-7" cx="82.35" cy="113.98" r="2.14"/><circle class="cls-7" cx="2.14" cy="124.2" r="2.14"/><circle class="cls-7" cx="13.6" cy="124.2" r="2.14"/><circle class="cls-7" cx="25.06" cy="124.2" r="2.14"/><circle class="cls-7" cx="36.52" cy="124.2" r="2.14"/><circle class="cls-7" cx="47.98" cy="124.2" r="2.14"/><circle class="cls-7" cx="59.44" cy="124.2" r="2.14"/><circle class="cls-7" cx="70.89" cy="124.2" r="2.14"/><circle class="cls-7" cx="82.35" cy="124.2" r="2.14"/><circle class="cls-7" cx="2.14" cy="134.41" r="2.14"/><circle class="cls-7" cx="13.6" cy="134.41" r="2.14"/><circle class="cls-7" cx="25.06" cy="134.41" r="2.14"/><circle class="cls-7" cx="36.52" cy="134.41" r="2.14"/><circle class="cls-7" cx="47.98" cy="134.41" r="2.14"/><circle class="cls-7" cx="59.44" cy="134.41" r="2.14"/><circle class="cls-7" cx="70.89" cy="134.41" r="2.14"/><circle class="cls-7" cx="82.35" cy="134.41" r="2.14"/><circle class="cls-7" cx="2.14" cy="144.63" r="2.14"/><circle class="cls-7" cx="13.6" cy="144.63" r="2.14"/><circle class="cls-7" cx="25.06" cy="144.63" r="2.14"/><circle class="cls-7" cx="36.52" cy="144.63" r="2.14"/><circle class="cls-7" cx="47.98" cy="144.63" r="2.14"/><circle class="cls-7" cx="59.44" cy="144.63" r="2.14"/><circle class="cls-7" cx="70.89" cy="144.63" r="2.14"/><circle class="cls-7" cx="82.35" cy="144.63" r="2.14"/><circle class="cls-7" cx="2.14" cy="154.85" r="2.14"/><circle class="cls-7" cx="13.6" cy="154.85" r="2.14"/><circle class="cls-7" cx="25.06" cy="154.85" r="2.14"/><circle class="cls-7" cx="36.52" cy="154.85" r="2.14"/><circle class="cls-7" cx="47.98" cy="154.85" r="2.14"/><circle class="cls-7" cx="59.44" cy="154.85" r="2.14"/><circle class="cls-7" cx="70.89" cy="154.85" r="2.14"/><circle class="cls-7" cx="82.35" cy="154.85" r="2.14"/><circle class="cls-7" cx="2.14" cy="165.06" r="2.14"/><circle class="cls-7" cx="13.6" cy="165.06" r="2.14"/><circle class="cls-7" cx="25.06" cy="165.06" r="2.14"/><circle class="cls-7" cx="36.52" cy="165.06" r="2.14"/><circle class="cls-7" cx="47.98" cy="165.06" r="2.14"/><circle class="cls-7" cx="59.44" cy="165.06" r="2.14"/><circle class="cls-7" cx="70.89" cy="165.06" r="2.14"/><circle class="cls-7" cx="82.35" cy="165.06" r="2.14"/><circle class="cls-7" cx="2.14" cy="175.28" r="2.14"/><circle class="cls-7" cx="13.6" cy="175.28" r="2.14"/><circle class="cls-7" cx="25.06" cy="175.28" r="2.14"/><circle class="cls-7" cx="36.52" cy="175.28" r="2.14"/><circle class="cls-7" cx="47.98" cy="175.28" r="2.14"/><circle class="cls-7" cx="59.44" cy="175.28" r="2.14"/><circle class="cls-7" cx="70.89" cy="175.28" r="2.14"/><circle class="cls-7" cx="82.35" cy="175.28" r="2.14"/><circle class="cls-7" cx="93.8" cy="2.24" r="2.14"/><circle class="cls-7" cx="105.26" cy="2.24" r="2.14"/><circle class="cls-7" cx="116.72" cy="2.24" r="2.14"/><circle class="cls-7" cx="128.18" cy="2.24" r="2.14"/><circle class="cls-7" cx="139.63" cy="2.24" r="2.14"/><circle class="cls-7" cx="151.09" cy="2.24" r="2.14"/><circle class="cls-7" cx="162.55" cy="2.24" r="2.14"/><path class="cls-7" d="M121.52-59.15A2.15,2.15,0,0,1,119.37-57a2.14,2.14,0,0,1-2.14-2.15,2.14,2.14,0,0,1,2.14-2.14,2.14,2.14,0,0,1,2.15,2.14" transform="translate(54.64 61.39)"/><circle class="cls-7" cx="93.8" cy="12.46" r="2.14"/><circle class="cls-7" cx="105.26" cy="12.46" r="2.14"/><circle class="cls-7" cx="116.72" cy="12.46" r="2.14"/><circle class="cls-7" cx="128.18" cy="12.46" r="2.14"/><circle class="cls-7" cx="139.63" cy="12.46" r="2.14"/><circle class="cls-7" cx="151.09" cy="12.46" r="2.14"/><circle class="cls-7" cx="162.55" cy="12.46" r="2.14"/><circle class="cls-7" cx="174.01" cy="12.46" r="2.14"/><circle class="cls-7" cx="93.8" cy="22.67" r="2.14"/><circle class="cls-7" cx="105.26" cy="22.67" r="2.14"/><circle class="cls-7" cx="116.72" cy="22.67" r="2.14"/><circle class="cls-7" cx="128.18" cy="22.67" r="2.14"/><circle class="cls-7" cx="139.63" cy="22.67" r="2.14"/><circle class="cls-7" cx="151.09" cy="22.67" r="2.14"/><circle class="cls-7" cx="162.55" cy="22.67" r="2.14"/><circle class="cls-7" cx="174.01" cy="22.67" r="2.14"/><circle class="cls-7" cx="93.8" cy="32.89" r="2.14"/><circle class="cls-7" cx="105.26" cy="32.89" r="2.14"/><circle class="cls-7" cx="116.72" cy="32.89" r="2.14"/><circle class="cls-7" cx="128.18" cy="32.89" r="2.14"/><circle class="cls-7" cx="139.63" cy="32.89" r="2.14"/><circle class="cls-7" cx="151.09" cy="32.89" r="2.14"/><circle class="cls-7" cx="162.55" cy="32.89" r="2.14"/><circle class="cls-7" cx="174.01" cy="32.89" r="2.14"/><circle class="cls-7" cx="93.8" cy="43.1" r="2.14"/><circle class="cls-7" cx="105.26" cy="43.1" r="2.14"/><circle class="cls-7" cx="116.72" cy="43.1" r="2.14"/><circle class="cls-7" cx="128.18" cy="43.1" r="2.14"/><circle class="cls-7" cx="139.63" cy="43.1" r="2.14"/><circle class="cls-7" cx="151.09" cy="43.1" r="2.14"/><circle class="cls-7" cx="162.55" cy="43.1" r="2.14"/><circle class="cls-7" cx="174.01" cy="43.1" r="2.14"/><circle class="cls-7" cx="93.8" cy="53.32" r="2.14"/><circle class="cls-7" cx="105.26" cy="53.32" r="2.14"/><circle class="cls-7" cx="116.72" cy="53.32" r="2.14"/><circle class="cls-7" cx="128.18" cy="53.32" r="2.14"/><circle class="cls-7" cx="139.63" cy="53.32" r="2.14"/><circle class="cls-7" cx="151.09" cy="53.32" r="2.14"/><circle class="cls-7" cx="162.55" cy="53.32" r="2.14"/><circle class="cls-7" cx="174.01" cy="53.32" r="2.14"/><circle class="cls-7" cx="93.8" cy="63.54" r="2.14"/><circle class="cls-7" cx="105.26" cy="63.54" r="2.14"/><circle class="cls-7" cx="116.72" cy="63.54" r="2.14"/><circle class="cls-7" cx="128.18" cy="63.54" r="2.14"/><circle class="cls-7" cx="139.63" cy="63.54" r="2.14"/><circle class="cls-7" cx="151.09" cy="63.54" r="2.14"/><circle class="cls-7" cx="162.55" cy="63.54" r="2.14"/><circle class="cls-7" cx="174.01" cy="63.54" r="2.14"/><circle class="cls-7" cx="93.8" cy="73.75" r="2.14"/><circle class="cls-7" cx="105.26" cy="73.75" r="2.14"/><circle class="cls-7" cx="116.72" cy="73.75" r="2.14"/><circle class="cls-7" cx="128.18" cy="73.75" r="2.14"/><circle class="cls-7" cx="139.63" cy="73.75" r="2.14"/><circle class="cls-7" cx="151.09" cy="73.75" r="2.14"/><circle class="cls-7" cx="162.55" cy="73.75" r="2.14"/><circle class="cls-7" cx="174.01" cy="73.75" r="2.14"/><circle class="cls-7" cx="93.8" cy="83.97" r="2.14"/><circle class="cls-7" cx="105.26" cy="83.97" r="2.14"/><circle class="cls-7" cx="116.72" cy="83.97" r="2.14"/><circle class="cls-7" cx="128.18" cy="83.97" r="2.14"/><circle class="cls-7" cx="139.63" cy="83.97" r="2.14"/><circle class="cls-7" cx="151.09" cy="83.97" r="2.14"/><circle class="cls-7" cx="162.55" cy="83.97" r="2.14"/><circle class="cls-7" cx="174.01" cy="83.97" r="2.14"/><circle class="cls-7" cx="93.8" cy="93.65" r="2.14"/><circle class="cls-7" cx="105.26" cy="93.65" r="2.14"/><circle class="cls-7" cx="116.72" cy="93.65" r="2.14"/><circle class="cls-7" cx="128.18" cy="93.65" r="2.14"/><circle class="cls-7" cx="139.63" cy="93.65" r="2.14"/><circle class="cls-7" cx="151.09" cy="93.65" r="2.14"/><circle class="cls-7" cx="162.55" cy="93.65" r="2.14"/><path class="cls-7" d="M121.52,32.26a2.15,2.15,0,1,1-2.15-2.14,2.14,2.14,0,0,1,2.15,2.14" transform="translate(54.64 61.39)"/><circle class="cls-7" cx="93.8" cy="103.87" r="2.14"/><circle class="cls-7" cx="105.26" cy="103.87" r="2.14"/><circle class="cls-7" cx="116.72" cy="103.87" r="2.14"/><circle class="cls-7" cx="128.18" cy="103.87" r="2.14"/><circle class="cls-7" cx="139.63" cy="103.87" r="2.14"/><circle class="cls-7" cx="151.09" cy="103.87" r="2.14"/><circle class="cls-7" cx="162.55" cy="103.87" r="2.14"/><circle class="cls-7" cx="174.01" cy="103.87" r="2.14"/><circle class="cls-7" cx="93.8" cy="114.08" r="2.14"/><circle class="cls-7" cx="105.26" cy="114.08" r="2.14"/><circle class="cls-7" cx="116.72" cy="114.08" r="2.14"/><circle class="cls-7" cx="128.18" cy="114.08" r="2.14"/><circle class="cls-7" cx="139.63" cy="114.08" r="2.14"/><circle class="cls-7" cx="151.09" cy="114.08" r="2.14"/><circle class="cls-7" cx="162.55" cy="114.08" r="2.14"/><circle class="cls-7" cx="174.01" cy="114.08" r="2.14"/><circle class="cls-7" cx="93.8" cy="124.3" r="2.14"/><circle class="cls-7" cx="105.26" cy="124.3" r="2.14"/><circle class="cls-7" cx="116.72" cy="124.3" r="2.14"/><circle class="cls-7" cx="128.18" cy="124.3" r="2.14"/><circle class="cls-7" cx="139.63" cy="124.3" r="2.14"/><circle class="cls-7" cx="151.09" cy="124.3" r="2.14"/><circle class="cls-7" cx="162.55" cy="124.3" r="2.14"/><circle class="cls-7" cx="174.01" cy="124.3" r="2.14"/><circle class="cls-7" cx="93.8" cy="134.51" r="2.14"/><circle class="cls-7" cx="105.26" cy="134.51" r="2.14"/><circle class="cls-7" cx="116.72" cy="134.51" r="2.14"/><circle class="cls-7" cx="128.18" cy="134.51" r="2.14"/><circle class="cls-7" cx="139.63" cy="134.51" r="2.14"/><circle class="cls-7" cx="151.09" cy="134.51" r="2.14"/><circle class="cls-7" cx="162.55" cy="134.51" r="2.14"/><circle class="cls-7" cx="174.01" cy="134.51" r="2.14"/><circle class="cls-7" cx="93.8" cy="144.73" r="2.14"/><circle class="cls-7" cx="105.26" cy="144.73" r="2.14"/><circle class="cls-7" cx="116.72" cy="144.73" r="2.14"/><circle class="cls-7" cx="128.18" cy="144.73" r="2.14"/><circle class="cls-7" cx="139.63" cy="144.73" r="2.14"/><circle class="cls-7" cx="151.09" cy="144.73" r="2.14"/><circle class="cls-7" cx="162.55" cy="144.73" r="2.14"/><circle class="cls-7" cx="174.01" cy="144.73" r="2.14"/><circle class="cls-7" cx="93.8" cy="154.94" r="2.14"/><circle class="cls-7" cx="105.26" cy="154.94" r="2.14"/><circle class="cls-7" cx="116.72" cy="154.94" r="2.14"/><circle class="cls-7" cx="128.18" cy="154.94" r="2.14"/><circle class="cls-7" cx="139.63" cy="154.94" r="2.14"/><circle class="cls-7" cx="151.09" cy="154.94" r="2.14"/><circle class="cls-7" cx="162.55" cy="154.94" r="2.14"/><circle class="cls-7" cx="174.01" cy="154.94" r="2.14"/><circle class="cls-7" cx="93.8" cy="165.16" r="2.14"/><circle class="cls-7" cx="105.26" cy="165.16" r="2.14"/><circle class="cls-7" cx="116.72" cy="165.16" r="2.14"/><circle class="cls-7" cx="128.18" cy="165.16" r="2.14"/><circle class="cls-7" cx="139.63" cy="165.16" r="2.14"/><circle class="cls-7" cx="151.09" cy="165.16" r="2.14"/><circle class="cls-7" cx="162.55" cy="165.16" r="2.14"/><circle class="cls-7" cx="174.01" cy="165.16" r="2.14"/><circle class="cls-7" cx="93.8" cy="175.37" r="2.14"/><circle class="cls-7" cx="105.26" cy="175.37" r="2.14"/><circle class="cls-7" cx="116.72" cy="175.37" r="2.14"/><circle class="cls-7" cx="128.18" cy="175.37" r="2.14"/><circle class="cls-7" cx="139.63" cy="175.37" r="2.14"/><circle class="cls-7" cx="151.09" cy="175.37" r="2.14"/><circle class="cls-7" cx="162.55" cy="175.37" r="2.14"/><circle class="cls-7" cx="174.01" cy="175.37" r="2.14"/></g></g></g></svg>