<svg xmlns="http://www.w3.org/2000/svg" viewBox="0 0 299.39 153.1"><defs><style>.cls-1{fill:#e0af3a;}.cls-2{fill:#fff;}.cls-3{fill:#422c92;}</style></defs><g id="Layer_2" data-name="Layer 2"><g id="Layer_1-2" data-name="Layer 1"><path class="cls-1" d="M211.92,13.54q9.06,4,18.11,8l.67.3L276.55,42c6.14,2.71,12.08,5.36,18.05,7.94a7.44,7.44,0,0,1,4,10.38c-2.11,4.64-4.1,9.34-6.19,14a7.43,7.43,0,0,1-3,3.59,7.13,7.13,0,0,1-6.83.47l-.79-.35c-.22.49-.4.91-.58,1.33q-6.43,14.58-12.86,29.17c-1.53,3.46-4.24,5.21-8.08,4.71a4.57,4.57,0,0,1-1.32-.33q-34.15-15-68.34-30c-3.07-1.34-5-6.14-3.56-9.24,4.5-9.91,8.81-19.9,13.2-29.85l.55-1.27c-.91-.55-1.8-1-2.61-1.58-2.3-1.63-3.27-5.83-2-8.52,2.43-5.06,4.6-10.24,6.83-15.39A7.11,7.11,0,0,1,211.92,13.54Z"/><path class="cls-2" d="M276.55,42c6.14,2.71,12.08,5.36,18.05,7.94a7.44,7.44,0,0,1,4,10.38c-2.11,4.64-4.1,9.34-6.19,14a7.43,7.43,0,0,1-3,3.59,7.13,7.13,0,0,1-6.83.47l-.79-.35-.58,1.33q-6.43,14.58-12.86,29.17c-1.53,3.46-4.24,5.21-8.08,4.71a4.57,4.57,0,0,1-1.32-.33q-34.15-15-68.34-30c-3.07-1.34-5-6.14-3.56-9.24,4.5-9.91,8.81-19.9,13.2-29.85l.55-1.27c-.91-.55-1.8-1-2.61-1.58-2.3-1.63-3.27-5.83-2-8.52,2.43-5.06,4.6-10.24,6.83-15.39a7.11,7.11,0,0,1,8.88-3.47q9.06,4,18.11,8l.67.3c-2.31-7.13-1.28-13.4,4.59-18.2,5.45-4.45,11.51-4.7,17.57-1.23,5.39,3.1,7.7,8,7.49,14.48,4.36-4.36,9.41-6.12,15.19-4.45a15.48,15.48,0,0,1,9.83,7.74A15.65,15.65,0,0,1,276.55,42Zm-70,2.92a2.53,2.53,0,0,0-.21.3Q199.67,60.4,193,75.56c-.46,1-.08,1.53.87,2Q208.72,84,223.6,90.6c.25.11.53.18.77.26l14-31.91ZM276.11,75.6,244.18,61.53l-14.05,31.9c.19.11.33.19.48.26l29.86,13.15c1.27.56,1.73.36,2.32-1q5.16-11.7,10.3-23.39Zm-27.7-39.21c-.24-.12-.38-.21-.53-.27q-18.81-8.29-37.61-16.59c-1-.45-1.55-.15-2,.82-2,4.64-4.06,9.26-6.1,13.88-.7,1.6-.66,1.7.92,2.4l36.8,16.2c.34.15.69.27,1.06.42Zm-1.73,19.39.53.27,37.37,16.46c1.23.54,1.73.34,2.27-.88q3-6.82,6-13.64c.64-1.45.48-1.85-1-2.51l-36.79-16.2c-.3-.13-.61-.24-.94-.36Zm4.21-25.29c.32-1.09.54-2,.85-2.84a42,42,0,0,0,2.39-11.19c.35-5.19-2.64-9-7.68-9.91-4-.76-6.94.81-9.17,4.08a8.86,8.86,0,0,0,.29,10.28C241.11,25.19,245.71,28,250.89,30.49Zm5.74,2.62c1.94.61,3.73,1.18,5.53,1.72a33.34,33.34,0,0,0,10.27,1.54c6.5-.11,10.8-8,7.1-13.83a9.22,9.22,0,0,0-15-1.12A61,61,0,0,0,256.63,33.11Z"/><path class="cls-1" d="M52,57.43v0c-7.58,3-15.17,6-22.73,9.13a43.45,43.45,0,0,0-6.39,3,39.37,39.37,0,0,0-12,11.36A40.11,40.11,0,0,0,4.78,94.8a39,39,0,0,0-.68,13.27,29.9,29.9,0,0,0,1.55,7.1c3.44,9,7.11,17.82,10.61,26.75a12.06,12.06,0,0,0,4.94,6.18,11.59,11.59,0,0,0,10.49,1.26,25,25,0,0,0,6.6-3.66A21.94,21.94,0,0,0,46.49,134c1-3.68,2-7.36,3.93-10.68A55.34,55.34,0,0,1,55,116.34a33.4,33.4,0,0,1,7.75-7.25,32.68,32.68,0,0,1,4.63-2.92c3.6-1.57,7.2-3.28,11.14-3.88a68.7,68.7,0,0,1,7.72-.81,36.24,36.24,0,0,1,10.94,1.43,38.35,38.35,0,0,1,10.93,4.83,23.61,23.61,0,0,0,22.84,1.88,11.79,11.79,0,0,0,4.29-3.25,12.07,12.07,0,0,0,1.8-12.8c-2.68-6.69-5.33-13.4-8.06-20.08a89.38,89.38,0,0,0-3.8-8.33,38.84,38.84,0,0,0-4.23-6.31,37.82,37.82,0,0,0-14-10.55,39.44,39.44,0,0,0-14.27-3.38,37,37,0,0,0-15.09,2.3C69,50.5,60.51,54,52,57.43Z"/><g id="qkT8Sx"><path class="cls-2" d="M7.48,128.81c-1.82-4.56-3.76-9.08-5.44-13.69A31.88,31.88,0,0,1,.1,105.71,73.15,73.15,0,0,1,.16,97a45.63,45.63,0,0,1,1.26-7.14,37.23,37.23,0,0,1,2-6.09A46.06,46.06,0,0,1,9.57,73.44,46.7,46.7,0,0,1,16,66.8,33.75,33.75,0,0,1,23.16,62c2.41-1.16,4.83-2.31,7.31-3.31Q52.06,50,73.68,41.4a44,44,0,0,1,12.4-2.82,43.27,43.27,0,0,1,17.25,2A40.8,40.8,0,0,1,117.25,48a52.87,52.87,0,0,1,5.89,5.49,54.84,54.84,0,0,1,5.19,7.18c2.91,4.72,4.54,10,6.64,15.11,1.79,4.35,3.5,8.73,5.26,13.1a20,20,0,0,1,1.48,10.54,19.3,19.3,0,0,1-5.9,11.37,20.12,20.12,0,0,1-8.51,4.74A30.4,30.4,0,0,1,105,113.82a37.8,37.8,0,0,1-3.64-2.11,29.63,29.63,0,0,0-12-4.2,31.61,31.61,0,0,0-9.71.28,25.6,25.6,0,0,0-3.4.94,27.34,27.34,0,0,0-3.19,1.11,30.08,30.08,0,0,0-8.17,5.29A31.2,31.2,0,0,0,56.12,129c-.51,1.59-.85,3.22-1.38,4.8a27.71,27.71,0,0,1-9.37,13.09,50.28,50.28,0,0,1-5.52,3.54,26.92,26.92,0,0,1-3.31,1.53,16.73,16.73,0,0,1-9,.95A18.8,18.8,0,0,1,15,145.56a16.82,16.82,0,0,1-2.19-3.66c-1.83-4.34-3.53-8.72-5.28-13.09ZM53,58v0c-7.15,2.86-14.31,5.7-21.44,8.61a40.49,40.49,0,0,0-6,2.86A36.92,36.92,0,0,0,14.2,80.15,38.05,38.05,0,0,0,8.49,93.23a36.34,36.34,0,0,0-.64,12.51,28,28,0,0,0,1.46,6.7c3.24,8.45,6.7,16.81,10,25.23A11.41,11.41,0,0,0,24,143.5a11,11,0,0,0,9.89,1.19,23.53,23.53,0,0,0,6.22-3.45,20.69,20.69,0,0,0,7.74-11.08,43.42,43.42,0,0,1,3.7-10.07,52.12,52.12,0,0,1,4.31-6.55,31.61,31.61,0,0,1,7.3-6.83A31.42,31.42,0,0,1,67.5,104c3.4-1.48,6.79-3.09,10.5-3.65a63.71,63.71,0,0,1,7.28-.76,34,34,0,0,1,10.32,1.34,36.07,36.07,0,0,1,10.31,4.56,22.27,22.27,0,0,0,21.54,1.76,10.74,10.74,0,0,0,4-3.06,11.38,11.38,0,0,0,1.71-12.07c-2.54-6.31-5-12.64-7.61-18.93A83.05,83.05,0,0,0,122,65.28a36.74,36.74,0,0,0-4-6,35.77,35.77,0,0,0-13.21-9.95,37.16,37.16,0,0,0-13.45-3.19,35.1,35.1,0,0,0-14.24,2.17C69,51.46,61,54.77,53,58Z"/><path class="cls-3" d="M37.12,99.6c.49,1.21,1,2.34,1.39,3.49.72,2,.29,3.57-1.14,4.63a3.68,3.68,0,0,1-5.68-1.16A43.54,43.54,0,0,1,30,102.45c-1.29.52-2.47,1-3.62,1.46a3.86,3.86,0,0,1-3.88-6.62,5.39,5.39,0,0,1,1.24-.64c1.08-.45,2.16-.87,3.39-1.36a43.73,43.73,0,0,1-1.62-4.11,3.63,3.63,0,0,1,3.09-4.75,3.72,3.72,0,0,1,4.21,2.46c.51,1.14.94,2.32,1.43,3.55,1.21-.48,2.33-1,3.48-1.38a3.77,3.77,0,0,1,4.2.65A3.84,3.84,0,0,1,41,98C39.78,98.62,38.5,99,37.12,99.6Z"/><path class="cls-3" d="M83,71.14a4,4,0,0,1,5.37,2.19A4.26,4.26,0,0,1,86,79a4.38,4.38,0,0,1-5.58-2.26A4.07,4.07,0,0,1,83,71.14Z"/><path class="cls-3" d="M99,64.73c2-1.2,4.9.09,5.61,2.46a4.34,4.34,0,0,1-2.46,5.32,4.45,4.45,0,0,1-5.63-2.43A4.15,4.15,0,0,1,99,64.73Z"/><path class="cls-3" d="M87.55,60.08a4,4,0,0,1,5.55,2.28A4.14,4.14,0,0,1,90.49,68a4.46,4.46,0,0,1-5.29-2.43A4.16,4.16,0,0,1,87.55,60.08Z"/><path class="cls-3" d="M97.16,83.93a4.24,4.24,0,0,1-5.44-2.11,4.47,4.47,0,0,1,1.92-5.55c2.48-1.11,4.82-.31,5.89,2.14A4,4,0,0,1,97.16,83.93Z"/></g></g></g></svg>