<svg xmlns="http://www.w3.org/2000/svg" viewBox="0 0 54.28 151.7"><defs><style>.cls-1{fill:none;stroke:#8040aa;stroke-linecap:round;stroke-miterlimit:10;stroke-width:1.79px;}.cls-2{fill:#8040aa;}</style></defs><g id="Layer_2" data-name="Layer 2"><g id="Layer_1-2" data-name="Layer 1"><path class="cls-1" d="M25.87,25.63c-4.76,15.77.9,32.27,1.51,48.14.32,8.1-2.1,15.07-3.07,22.9-1.12,9.11,1.1,18.5,2.52,27.44a72.74,72.74,0,0,1-1,26.7"/><path class="cls-2" d="M32,78.81l-4-4a1.3,1.3,0,0,0-1.84,0l-4,4A1.3,1.3,0,0,0,23.17,81h7.94A1.3,1.3,0,0,0,32,78.81Z"/><path class="cls-2" d="M54.28,27.14c0,12.76-19.66,39.35-25.52,47a2,2,0,0,1-3.24,0C19.67,66.49,0,39.9,0,27.14a27.14,27.14,0,0,1,54.28,0Z"/></g></g></svg>