<svg xmlns="http://www.w3.org/2000/svg" viewBox="0 0 59.72 128.07"><defs><style>.cls-1{fill:#c08617;}</style></defs><g id="Layer_2" data-name="Layer 2"><g id="Layer_1-2" data-name="Layer 1"><path class="cls-1" d="M32.72,128.07a2.45,2.45,0,0,1-2-1.07,2.48,2.48,0,0,1,.63-3.45c7.36-5.07,11.7-15.23,11.07-25.87a48.24,48.24,0,0,0-3.54-15.1,33.81,33.81,0,0,1-14.72,2C15.29,83.8,7.72,79.6,3.33,73,.11,68.18-.83,62.92.76,58.59a12.52,12.52,0,0,1,7-7.11,17.62,17.62,0,0,1,13.4-.11c7,2.9,11.52,9.27,15.08,15.12q3,4.89,5.13,9.4a23.4,23.4,0,0,0,5.22-4.11c10-10.56,11-28.95,2.4-42.78C41.3,16.76,27.05,8,9.85,4.92A2.48,2.48,0,1,1,10.72,0c18.58,3.3,34.05,12.9,42.44,26.34,9.79,15.68,8.5,36.66-3,48.81a28.77,28.77,0,0,1-6.8,5.29,53.62,53.62,0,0,1,4,16.91c.75,12.53-4.32,24.12-13.21,30.24A2.42,2.42,0,0,1,32.72,128.07Zm-18.18-73A12.2,12.2,0,0,0,9.7,56,7.7,7.7,0,0,0,5.41,60.3c-1,2.78-.25,6.51,2.05,10C11,75.58,17.23,79,24.54,79.61A29,29,0,0,0,36.83,78,101.13,101.13,0,0,0,32,69.06C28.82,63.9,24.85,58.3,19.21,56A12.21,12.21,0,0,0,14.54,55.05Z"/></g></g></svg>