<svg xmlns="http://www.w3.org/2000/svg" xmlns:xlink="http://www.w3.org/1999/xlink" viewBox="0 0 370.31 214.54"><defs><style>.cls-1{fill:#b88738;}.cls-2{fill:none;stroke:#b8873a;stroke-linecap:round;stroke-miterlimit:10;stroke-width:2.08px;}.cls-3{fill:#b8863b;}.cls-4{clip-path:url(#clip-path);}.cls-5{fill:#fff;}</style><clipPath id="clip-path" transform="translate(205.64 13.3)"><path class="cls-1" d="M73.42,36.71c0,17.26-26.6,53.23-34.51,63.55a2.77,2.77,0,0,1-4.39,0C26.6,89.94,0,54,0,36.71a36.71,36.71,0,0,1,73.42,0Z"/></clipPath></defs><g id="Layer_2" data-name="Layer 2"><g id="Layer_1-2" data-name="Layer 1"><path class="cls-2" d="M37.35,73c-4.83,16,.91,32.8,1.54,48.93.32,8.23-2.14,15.31-3.12,23.28-1.14,9.25,1.12,18.79,2.56,27.88a74,74,0,0,1-1,27.13" transform="translate(205.64 13.3)"/><path class="cls-3" d="M43.32,107.22,38,101.85a1.76,1.76,0,0,0-2.48,0l-5.37,5.37a1.76,1.76,0,0,0,1.24,3H42.08A1.76,1.76,0,0,0,43.32,107.22Z" transform="translate(205.64 13.3)"/><path class="cls-1" d="M73.42,36.71c0,17.26-26.6,53.23-34.51,63.55a2.77,2.77,0,0,1-4.39,0C26.6,89.94,0,54,0,36.71a36.71,36.71,0,0,1,73.42,0Z" transform="translate(205.64 13.3)"/><g class="cls-4"><rect class="cls-5" x="-208.04" y="20.22" width="362.07" height="8.01" transform="translate(200.68 8.71) rotate(-10.69)"/><rect class="cls-5" x="-203.69" y="43.25" width="362.07" height="8.01" transform="translate(196.48 9.92) rotate(-10.69)"/><rect class="cls-5" x="-199.35" y="66.28" width="362.07" height="8.01" transform="translate(192.28 11.12) rotate(-10.69)"/><rect class="cls-5" x="-195" y="89.31" width="362.07" height="8.01" transform="matrix(0.98, -0.19, 0.19, 0.98, 188.08, 12.33)"/></g></g></g></svg>