<svg xmlns="http://www.w3.org/2000/svg" viewBox="0 0 65.98 136.62"><defs><style>.cls-1{fill:#c08617;}</style></defs><g id="Layer_2" data-name="Layer 2"><g id="Layer_1-2" data-name="Layer 1"><path class="cls-1" d="M19.57,136.62a2.45,2.45,0,0,1-2.43-3c1.82-8.27-3.21-16.53-8.08-24.52C3.87,100.56-1.39,89.72,3,79.74a19.26,19.26,0,0,1,2.41-4.06C-3.28,60.74-.95,40.3,8.55,26.88,19.71,11.09,39.69,1.3,63.37,0A2.45,2.45,0,0,1,66,2.35,2.47,2.47,0,0,1,63.64,5c-21.83,1.19-40.91,10.46-51,24.78-8,11.37-10.29,29-3.57,42.14a42,42,0,0,1,7.86-5.09c3.86-2,9.05-4.34,14.7-4.19,6.12.09,11.61,3.22,14,8a13,13,0,0,1,.11,11,16.72,16.72,0,0,1-9.91,9.27C28.86,93,20.6,91,13.68,85.39a35.12,35.12,0,0,1-5.3-5.33,14.75,14.75,0,0,0-.87,1.67C4.07,89.61,8.73,99,13.18,106.31c5.24,8.61,11.06,18.15,8.8,28.37A2.46,2.46,0,0,1,19.57,136.62Zm-7.9-60.45a29.54,29.54,0,0,0,5.13,5.37c4.34,3.52,11.19,6.57,17.45,4.54a11.63,11.63,0,0,0,6.86-6.46,8.14,8.14,0,0,0,0-6.83c-1.77-3.54-6.11-5.18-9.62-5.23-4.52-.16-9,1.9-12.35,3.63A35.44,35.44,0,0,0,11.67,76.17Z"/></g></g></svg>