<svg xmlns="http://www.w3.org/2000/svg" viewBox="0 0 121.08 133.54"><defs><style>.cls-1{fill:#c08617;}</style></defs><g id="Layer_2" data-name="Layer 2"><g id="Layer_1-2" data-name="Layer 1"><path class="cls-1" d="M2.85.66A1.94,1.94,0,0,1,6.08,2.71a28.29,28.29,0,0,0,5.56,30.45,25.43,25.43,0,0,0,3.64,3.09c4.57-9.41,13.92-16.17,24.14-16.71,5.47-.3,11.9,1.81,13.94,7.19,2.48,6.59-3.09,13.44-9.92,16.25a32.28,32.28,0,0,1-26.21-1.1,22.9,22.9,0,0,0-.65,2.72c-2,10.95,3.2,22.91,12.82,29.77,10.27,7.31,23.09,8.23,36.67,9.2,13.17.94,26.79,1.92,37.87,9.3A39.54,39.54,0,0,1,120.48,132a1.93,1.93,0,0,1-3.8-.7,35.56,35.56,0,0,0-14.89-35.16c-10.23-6.82-22.74-7.71-36-8.66-13.51-1-27.48-2-38.63-9.91-10.82-7.71-16.6-21.21-14.39-33.6a29.8,29.8,0,0,1,1-4,30.15,30.15,0,0,1-4.91-4A32.23,32.23,0,0,1,2.54,1.16,1.92,1.92,0,0,1,2.85.66ZM47.76,35.32c1.92-2.18,2.9-4.79,2-7.22-1.34-3.55-6.05-4.92-10.11-4.7-8.78.47-17.06,6.6-21,14.87A28.34,28.34,0,0,0,42,39.4,15.86,15.86,0,0,0,47.76,35.32Z"/></g></g></svg>