<?xml version="1.0" encoding="UTF-8"?>
<svg version="1.1" xmlns="http://www.w3.org/2000/svg" width="200" height="104">
<path d="M0 0 C0.99 0.99 0.99 0.99 2 2 C1.76756497 6.41626552 0.07039996 8.02555004 -3 11 C-3.60061233 12.90178785 -3.60061233 12.90178785 -4 15 C-4.515625 16.010625 -5.03125 17.02125 -5.5625 18.0625 C-7.21977643 20.90404688 -7.21977643 20.90404688 -7 24 C-6.71278076 23.52578613 -6.42556152 23.05157227 -6.12963867 22.56298828 C-4.82223455 20.41287092 -3.5050131 18.26893647 -2.1875 16.125 C-1.73568359 15.37863281 -1.28386719 14.63226563 -0.81835938 13.86328125 C-0.15610352 12.79013672 -0.15610352 12.79013672 0.51953125 11.6953125 C0.92276611 11.03547363 1.32600098 10.37563477 1.74145508 9.69580078 C3 8 3 8 6 6 C8.00124361 6.32578384 10.00102872 6.66055205 12 7 C14.694363 6.80272487 17.32286404 6.38861651 20 6 C21.32 6 22.64 6 24 6 C24.78375 5.484375 25.5675 4.96875 26.375 4.4375 C29.74783865 2.59046931 31.3583586 2.97084047 35 4 C35.99 4.66 36.98 5.32 38 6 C38.1875 8.625 38.1875 8.625 38 11 C35.525 11.99 35.525 11.99 33 13 C32.01 11.515 32.01 11.515 31 10 C31.2165625 11.7634375 31.2165625 11.7634375 31.4375 13.5625 C31.52515625 14.29210938 31.6128125 15.02171875 31.703125 15.7734375 C31.96725092 17.75438191 32.32121461 19.72287834 32.6875 21.6875 C33.03102379 25.32885218 32.81781552 26.86013683 31 30 C27.98952611 33.49865885 25.50651122 35.84717155 21 37 C18.3084559 37.14562459 15.69990866 37.09152233 13 37 C13 36.34 13 35.68 13 35 C12.236875 34.773125 11.47375 34.54625 10.6875 34.3125 C7.45263699 32.73268318 6.58358642 31.16717283 5 28 C4.34 30.31 3.68 32.62 3 35 C-0.11684158 35.89052617 -1.53559593 36.20388471 -4.5625 34.875 C-5.7690625 34.441875 -5.7690625 34.441875 -7 34 C-9.0399719 35.36323743 -9.0399719 35.36323743 -11 37 C-14.77560787 37.46043998 -15.74236778 37.17175481 -19 35 C-19.42410156 35.44472656 -19.84820312 35.88945313 -20.28515625 36.34765625 C-22.12122504 38.11915999 -23.83374632 39.64609145 -26 41 C-28.33944736 40.71269945 -30.6739143 40.38063221 -33 40 C-35.05279996 41.60118397 -37.05651499 43.26776336 -39 45 C-41.875 45.3125 -41.875 45.3125 -44 45 C-44 44.34 -44 43.68 -44 43 C-47.2766993 43.77600533 -47.2766993 43.77600533 -49.25 47 C-51.43233897 49.75106973 -51.97472244 49.99302688 -55.625 51 C-59 51 -59 51 -62 49 C-62.26425781 49.59296875 -62.52851562 50.1859375 -62.80078125 50.796875 C-64.76965656 54.41396188 -67.53078393 56.82035111 -71 59 C-74.625 59.6875 -74.625 59.6875 -78 59 C-80.9375 56.5 -80.9375 56.5 -83 54 C-83.58007812 54.92232422 -83.58007812 54.92232422 -84.171875 55.86328125 C-84.69265625 56.67152344 -85.2134375 57.47976562 -85.75 58.3125 C-86.51570313 59.51326172 -86.51570313 59.51326172 -87.296875 60.73828125 C-89.03414359 63.04534206 -90.53952559 64.50064841 -93 66 C-96.25 66.1875 -96.25 66.1875 -99 66 C-99.0825 66.5775 -99.165 67.155 -99.25 67.75 C-100.27746865 70.83240595 -101.38259716 72.05372609 -104 74 C-106.70220368 74.62517523 -109.21492576 74.81432838 -112 75 C-112 74.34 -112 73.68 -112 73 C-112.928125 72.62875 -112.928125 72.62875 -113.875 72.25 C-116.48998244 70.71177504 -117.06708246 69.87649576 -118 67 C-118.47019443 61.12256967 -117.28429091 55.69904089 -116 50 C-119.24659712 59.83399717 -119.24659712 59.83399717 -121 70 C-123.97 70.99 -123.97 70.99 -127 72 C-128.65 70.35 -130.3 68.7 -132 67 C-132.68707031 67.49371094 -133.37414062 67.98742187 -134.08203125 68.49609375 C-134.98308594 69.13675781 -135.88414062 69.77742188 -136.8125 70.4375 C-137.70582031 71.07558594 -138.59914062 71.71367188 -139.51953125 72.37109375 C-142.83687222 74.54956806 -145.30314235 75.12617799 -149.1875 75.0625 C-150.445625 75.041875 -151.70375 75.02125 -153 75 C-153 74.34 -153 73.68 -153 73 C-153.556875 72.95875 -154.11375 72.9175 -154.6875 72.875 C-158.17236002 71.55640432 -160.16312059 69.14357715 -162 66 C-162.70734461 63.09856728 -162.71569291 60.34991623 -162.625 57.375 C-162.60953125 56.58101807 -162.5940625 55.78703613 -162.578125 54.96899414 C-162.14199184 44.6181704 -158.4523989 36.37630526 -151.234375 28.9140625 C-145.7628873 24.22694891 -139.52787263 20.99159156 -132.1796875 21.44921875 C-127.99534463 22.5065527 -124.83614384 24.787633 -122 28 C-121 31.375 -121 31.375 -121 34 C-120.76925781 33.45730469 -120.53851563 32.91460937 -120.30078125 32.35546875 C-118.72007235 28.88790576 -117.50582793 26.42800825 -114.5625 23.9375 C-111.5741397 22.84419745 -110.00108364 23.05680229 -107 24 C-107 28.16411215 -107.61259081 29.66392253 -109.5 33.25 C-109.9640625 34.14203125 -110.428125 35.0340625 -110.90625 35.953125 C-111.2671875 36.62859375 -111.628125 37.3040625 -112 38 C-111.22269531 37.95875 -110.44539063 37.9175 -109.64453125 37.875 C-107 38 -107 38 -104.6875 40 C-103.8521875 40.99 -103.8521875 40.99 -103 42 C-102.64808594 41.50628906 -102.29617187 41.01257813 -101.93359375 40.50390625 C-99.26259702 37.03788699 -97.81157195 35.2318777 -93.5 34 C-85.2 34 -85.2 34 -82.125 36.5625 C-81.568125 37.2740625 -81.568125 37.2740625 -81 38 C-80.46375 37.113125 -79.9275 36.22625 -79.375 35.3125 C-76.23640942 30.66518342 -72.92934897 27.54157164 -67.4375 26 C-63.55679717 26 -62.17012378 26.91909824 -59 29 C-58.55269531 27.81921875 -58.10539062 26.6384375 -57.64453125 25.421875 C-57.03462942 23.86427955 -56.42390906 22.30700443 -55.8125 20.75 C-55.52052734 19.97269531 -55.22855469 19.19539063 -54.92773438 18.39453125 C-53.07634863 13.73620583 -51.50542386 10.62341136 -47 8 C-43.6875 8.25 -43.6875 8.25 -41 9 C-41 12.73120535 -41.28276029 14.14133833 -42.71484375 17.40625 C-43.07126953 18.23253906 -43.42769531 19.05882813 -43.79492188 19.91015625 C-44.17197266 20.76480469 -44.54902344 21.61945312 -44.9375 22.5 C-45.67839979 24.19677568 -46.41677646 25.89465584 -47.15234375 27.59375 C-47.48226318 28.34333984 -47.81218262 29.09292969 -48.15209961 29.86523438 C-48.9588758 31.89646127 -49.52496374 33.86942469 -50 36 C-49.70867187 35.21496094 -49.41734375 34.42992187 -49.1171875 33.62109375 C-46.07956395 25.83598937 -43.24006938 19.76526264 -36.125 15.125 C-30.76190732 13.19428664 -26.88741101 12.22481334 -21.5 14.4375 C-20.675 14.953125 -19.85 15.46875 -19 16 C-19.99 19.96 -20.98 23.92 -22 28 C-21.46890625 26.95199219 -20.9378125 25.90398438 -20.390625 24.82421875 C-19.67758653 23.44505223 -18.96401687 22.06616024 -18.25 20.6875 C-17.90195313 19.99720703 -17.55390625 19.30691406 -17.1953125 18.59570312 C-13.7033004 11.90267993 -13.7033004 11.90267993 -10 10 C-8.68 10 -7.36 10 -6 10 C-6 9.34 -6 8.68 -6 8 C-6.99 7.67 -7.98 7.34 -9 7 C-9.25 4.6875 -9.25 4.6875 -9 2 C-6.07557433 -1.24936186 -4.04996841 -1.38551551 0 0 Z M12 14 C10.30911778 15.97956942 8.64169528 17.97945196 7 20 C7.33 20.66 7.66 21.32 8 22 C9.98 21.34 11.96 20.68 14 20 C13.34 19.67 12.68 19.34 12 19 C12.33 17.35 12.66 15.7 13 14 C12.67 14 12.34 14 12 14 Z M21 16 C20.566875 16.45375 20.13375 16.9075 19.6875 17.375 C17.90598828 19.0905298 16.24382596 19.99414699 14 21 C14.66 21 15.32 21 16 21 C15.67 21.94875 15.34 22.8975 15 23.875 C13.89840809 26.77062452 13.89840809 26.77062452 14 29 C16.93443402 28.73343428 16.93443402 28.73343428 20 28 C22.13586678 24.79619983 22.23132175 23.98060033 22.125 20.3125 C22.09792969 19.10013672 22.09792969 19.10013672 22.0703125 17.86328125 C22.04710937 17.24839844 22.02390625 16.63351563 22 16 C21.67 16 21.34 16 21 16 Z M-31 20 C-35.55774263 24.67460782 -36.66290194 27.48277089 -37 34 C-34.45655714 31.72698066 -33.12383563 29.54913519 -31.75 26.4375 C-31.39421875 25.65246094 -31.0384375 24.86742187 -30.671875 24.05859375 C-29.7229657 21.96852204 -29.7229657 21.96852204 -31 20 Z M6 22 C7 24 7 24 7 24 Z M-9 25 C-8 27 -8 27 -8 27 Z M-141.51171875 32.40625 C-148.72584846 40.11101322 -150.46811772 48.04332199 -150.23828125 58.41015625 C-150.28491031 60.92820579 -150.28491031 60.92820579 -149 62 C-144.47809025 62.58070841 -140.93327425 62.45748738 -136.8125 60.4375 C-131.24807949 55.61500223 -126.37108689 50.11326066 -124 43 C-124.33 42.34 -124.66 41.68 -125 41 C-125.680625 41.66 -126.36125 42.32 -127.0625 43 C-130.73085974 45.49760663 -132.64197392 45.6338947 -137 45 C-139.4375 43.3125 -139.4375 43.3125 -141 41 C-141.25 38.25 -141.25 38.25 -141 36 C-138.36 36.33 -135.72 36.66 -133 37 C-131.33153266 35.30504044 -131.33153266 35.30504044 -130 33 C-130.22197813 30.3015411 -130.22197813 30.3015411 -131 28 C-135.88269055 28 -137.96042435 29.10272033 -141.51171875 32.40625 Z M-69 33 C-71.4422393 37.35355702 -72.61636486 41.01274315 -73 46 C-72.67 46.66 -72.34 47.32 -72 48 C-68.58540955 47.74706737 -67.75204681 46.74051411 -65.3125 44.1875 C-62.88044969 40.85013185 -62.88044969 40.85013185 -62 37 C-63.65 37 -65.3 37 -67 37 C-67 35.68 -67 34.36 -67 33 C-67.66 33 -68.32 33 -69 33 Z M-123 36 C-122 38 -122 38 -122 38 Z M-124 39 C-123 41 -123 41 -123 41 Z M-93 42 C-96.53286034 46.56327794 -96.32374517 50.49633208 -96 56 C-92.83409094 55.3340424 -92.83409094 55.3340424 -91.83203125 52.71484375 C-91.32736328 51.34005859 -91.32736328 51.34005859 -90.8125 49.9375 C-90.46832031 49.01839844 -90.12414062 48.09929687 -89.76953125 47.15234375 C-89.38861328 46.08693359 -89.38861328 46.08693359 -89 45 C-90.32 44.01 -91.64 43.02 -93 42 Z M-107 56 C-107 59.3 -107 62.6 -107 66 C-105.02 65.67 -103.04 65.34 -101 65 C-101.639375 64.443125 -102.27875 63.88625 -102.9375 63.3125 C-105.19680987 60.77933439 -105.63149047 59.31658576 -106 56 C-106.33 56 -106.66 56 -107 56 Z " fill="#FBFAF8" transform="translate(162,24)"/>
<path d="M0 0 C4.03619502 2.51310256 4.7212 3.95914668 5.9375 8.5 C5.99958404 11.97670616 5.57596963 13.94076484 4 17 C4.5775 16.649375 5.155 16.29875 5.75 15.9375 C8.35801776 14.85082593 9.39417629 15.06934867 12 16 C12.5534764 18.07553648 13 19.84365964 13 22 C15.67596869 18.10459381 15.67596869 18.10459381 18 14 C17.505 13.21625 17.01 12.4325 16.5 11.625 C15 9 15 9 15.3125 6.6875 C15.539375 6.130625 15.76625 5.57375 16 5 C17.19625 5.268125 18.3925 5.53625 19.625 5.8125 C22.23440682 6.16811828 23.492599 6.31164097 25.76171875 4.91796875 C27.18158251 3.61970541 28.59132508 2.31039527 30 1 C30.99 1.33 31.98 1.66 33 2 C32.39009109 5.55780196 31.4216319 8.6828589 30 12 C31.32 12.66 32.64 13.32 34 14 C34 14.66 34 15.32 34 16 C34.66 16 35.32 16 36 16 C36.268125 15.195625 36.53625 14.39125 36.8125 13.5625 C37.204375 12.716875 37.59625 11.87125 38 11 C41 10 41 10 44 10 C46.93446884 9.46646021 47.82586238 9.17413762 50 7 C52.45098556 7.39532025 54.63904279 8.21301426 57 9 C57 10.65 57 12.3 57 14 C58.65 11.36 60.3 8.72 62 6 C62.99 6.33 63.98 6.66 65 7 C65 8.32 65 9.64 65 11 C65.99 9.02 66.98 7.04 68 5 C68.99 5.33 69.98 5.66 71 6 C70.37727768 13.4071181 69.29512034 20.68194135 68 28 C66.35 27.67 64.7 27.34 63 27 C63 25.02 63 23.04 63 21 C61.16299211 20.22757731 61.16299211 20.22757731 59 20 C58.505 20.495 58.01 20.99 57.5 21.5 C57.005 21.995 56.51 22.49 56 23 C53.9375 22.6875 53.9375 22.6875 52 22 C51.34 22 50.68 22 50 22 C49.484375 22.639375 48.96875 23.27875 48.4375 23.9375 C45.02982962 26.8209134 41.42247549 27.25612792 37 27 C36.01 26.01 36.01 26.01 35 25 C33.68 26.65 32.36 28.3 31 30 C28.625 29.75 28.625 29.75 26 29 C25.34 27.68 24.68 26.36 24 25 C22.68 27.64 21.36 30.28 20 33 C19.21625 32.95875 18.4325 32.9175 17.625 32.875 C14.83883881 32.71271266 14.83883881 32.71271266 13 35 C12.05125 34.979375 11.1025 34.95875 10.125 34.9375 C6.97490258 34.68008875 6.97490258 34.68008875 5 36.625 C4.34 37.07875 3.68 37.5325 3 38 C2.071875 37.608125 1.14375 37.21625 0.1875 36.8125 C-0.864375 36.544375 -1.91625 36.27625 -3 36 C-4.91198056 37.27771778 -6.43056418 38.80063402 -8.08984375 40.390625 C-12.52799541 44.1299266 -17.91147984 45.32065674 -23.625 45 C-28.30390488 44.21472925 -31.82694306 42.57503451 -35 39 C-38.38127472 33.36831166 -38.37622472 27.97286085 -36.90625 21.69921875 C-33.55706291 11.72383825 -25.85170048 5.40913878 -16.59765625 0.8046875 C-11.2063182 -0.8654112 -5.56180541 -0.63791316 0 0 Z M-10 4 C-8.68 4.66 -7.36 5.32 -6 6 C-6 6.66 -6 7.32 -6 8 C-6.68707031 8.31453125 -7.37414062 8.6290625 -8.08203125 8.953125 C-9.43361328 9.59507813 -9.43361328 9.59507813 -10.8125 10.25 C-11.70582031 10.66765625 -12.59914063 11.0853125 -13.51953125 11.515625 C-16.15525547 13.09290878 -17.44622669 14.36975629 -19 17 C-19.41702122 20.0842309 -19.41702122 20.0842309 -19 23 C-18.34 23.66 -17.68 24.32 -17 25 C-10.60928587 25 -6.53642455 22.39338414 -2 18 C0.39746655 14.32887934 1.71377799 11.40163091 1 7 C0.10938785 5.02421261 0.10938785 5.02421261 -2 4 C-4.71874043 3.75332927 -7.25883852 3.86518878 -10 4 Z M-22.375 10.8125 C-27.09651867 15.69206114 -29.63760291 21.56248456 -30.19140625 28.34375 C-29.97697805 31.82658374 -29.14907254 33.81930602 -26.9375 36.5 C-23.16881296 38.42443594 -20.09711252 38.74836557 -16 38 C-10.66699693 36.16001555 -6.62060354 33.36602192 -3 29 C-2.29670011 27.34845785 -1.62381441 25.68317492 -1 24 C-1.78503906 24.433125 -2.57007812 24.86625 -3.37890625 25.3125 C-14.41667244 31.16319324 -14.41667244 31.16319324 -20 30 C-22.4375 28.5 -22.4375 28.5 -24 26 C-24.62891837 21.12588265 -24.58758674 19.0536038 -22.1875 14.75 C-21.465625 13.8425 -20.74375 12.935 -20 12 C-19.13375 10.824375 -19.13375 10.824375 -18.25 9.625 C-17.8375 9.08875 -17.425 8.5525 -17 8 C-19.72864929 8 -20.39629148 8.96772153 -22.375 10.8125 Z M24 11 C23.67 11.66 23.34 12.32 23 13 C23.66 13.66 24.32 14.32 25 15 C24.67 13.68 24.34 12.36 24 11 Z M48 11 C49 15 49 15 49 15 Z M63 13 C64 15 64 15 64 15 Z M41 15 C40.67 16.98 40.34 18.96 40 21 C40.66 20.67 41.32 20.34 42 20 C42 18.35 42 16.7 42 15 C41.67 15 41.34 15 41 15 Z M29 17 C29 19.31 29 21.62 29 24 C29.33 24 29.66 24 30 24 C30 21.69 30 19.38 30 17 C29.67 17 29.34 17 29 17 Z M19 20 C20 22 20 22 20 22 Z M0 21 C1 23 1 23 1 23 Z M6 21 C3.5943192 24.94075703 3.5943192 24.94075703 3.3125 29.375 C3.539375 29.91125 3.76625 30.4475 4 31 C6.4056808 27.05924297 6.4056808 27.05924297 6.6875 22.625 C6.460625 22.08875 6.23375 21.5525 6 21 Z M18 22 C19 26 19 26 19 26 Z " fill="#F5D56A" transform="translate(80,0)"/>
<path d="M0 0 C3.64973806 2.46130022 5.422468 3.93461858 6.6953125 8.23046875 C6.6953125 9.09671875 6.6953125 9.96296875 6.6953125 10.85546875 C7.04142578 10.04142578 7.04142578 10.04142578 7.39453125 9.2109375 C8.97524015 5.74337451 10.18948457 3.283477 13.1328125 0.79296875 C16.1211728 -0.3003338 17.69422886 -0.08772896 20.6953125 0.85546875 C20.6953125 5.0195809 20.08272169 6.51939128 18.1953125 10.10546875 C17.73125 10.9975 17.2671875 11.88953125 16.7890625 12.80859375 C16.428125 13.4840625 16.0671875 14.15953125 15.6953125 14.85546875 C16.4996875 14.83484375 17.3040625 14.81421875 18.1328125 14.79296875 C20.6953125 14.85546875 20.6953125 14.85546875 21.6953125 15.85546875 C21.86328125 17.74609375 21.86328125 17.74609375 21.8828125 20.10546875 C21.89699219 20.87375 21.91117188 21.64203125 21.92578125 22.43359375 C21.6953125 24.85546875 21.6953125 24.85546875 20.72265625 27.2578125 C19.52259775 30.29218094 19.28453698 32.91889754 19.0703125 36.16796875 C18.99554688 37.23660156 18.92078125 38.30523437 18.84375 39.40625 C18.79476562 40.21449219 18.74578125 41.02273437 18.6953125 41.85546875 C21.3353125 41.85546875 23.9753125 41.85546875 26.6953125 41.85546875 C26.37683101 44.82796261 25.65905431 45.89385978 23.5703125 48.10546875 C19.96974831 50.29711652 17.84434384 50.39330615 13.6953125 49.85546875 C11.07938097 48.02431668 10.72541795 46.94578509 9.6953125 43.85546875 C9.33360977 37.94765747 10.4050733 32.58090519 11.6953125 26.85546875 C8.44871538 36.68946592 8.44871538 36.68946592 6.6953125 46.85546875 C4.7153125 47.51546875 2.7353125 48.17546875 0.6953125 48.85546875 C-1.7796875 46.38046875 -1.7796875 46.38046875 -4.3046875 43.85546875 C-4.99175781 44.34917969 -5.67882812 44.84289062 -6.38671875 45.3515625 C-7.28777344 45.99222656 -8.18882813 46.63289063 -9.1171875 47.29296875 C-10.01050781 47.93105469 -10.90382813 48.56914063 -11.82421875 49.2265625 C-15.14155972 51.40503681 -17.60782985 51.98164674 -21.4921875 51.91796875 C-22.7503125 51.89734375 -24.0084375 51.87671875 -25.3046875 51.85546875 C-25.3046875 51.19546875 -25.3046875 50.53546875 -25.3046875 49.85546875 C-25.8615625 49.81421875 -26.4184375 49.77296875 -26.9921875 49.73046875 C-30.47704752 48.41187307 -32.46780809 45.9990459 -34.3046875 42.85546875 C-35.01203211 39.95403603 -35.02038041 37.20538498 -34.9296875 34.23046875 C-34.91421875 33.43648682 -34.89875 32.64250488 -34.8828125 31.82446289 C-34.44667934 21.47363915 -30.7570864 13.23177401 -23.5390625 5.76953125 C-16.96672964 0.13938597 -8.36717149 -4.15522245 0 0 Z M-13.81640625 9.26171875 C-21.03053596 16.96648197 -22.77280522 24.89879074 -22.54296875 35.265625 C-22.58959781 37.78367454 -22.58959781 37.78367454 -21.3046875 38.85546875 C-16.78277775 39.43617716 -13.23796175 39.31295613 -9.1171875 37.29296875 C-3.55276699 32.47047098 1.32422561 26.96872941 3.6953125 19.85546875 C3.3653125 19.19546875 3.0353125 18.53546875 2.6953125 17.85546875 C2.0146875 18.51546875 1.3340625 19.17546875 0.6328125 19.85546875 C-3.03554724 22.35307538 -4.94666142 22.48936345 -9.3046875 21.85546875 C-11.7421875 20.16796875 -11.7421875 20.16796875 -13.3046875 17.85546875 C-13.5546875 15.10546875 -13.5546875 15.10546875 -13.3046875 12.85546875 C-10.6646875 13.18546875 -8.0246875 13.51546875 -5.3046875 13.85546875 C-3.63622016 12.16050919 -3.63622016 12.16050919 -2.3046875 9.85546875 C-2.52666563 7.15700985 -2.52666563 7.15700985 -3.3046875 4.85546875 C-8.18737805 4.85546875 -10.26511185 5.95818908 -13.81640625 9.26171875 Z M4.6953125 12.85546875 C5.6953125 14.85546875 5.6953125 14.85546875 5.6953125 14.85546875 Z M3.6953125 15.85546875 C4.6953125 17.85546875 4.6953125 17.85546875 4.6953125 17.85546875 Z " fill="#FDFCFB" transform="translate(34.3046875,47.14453125)"/>
<path d="M0 0 C2.625 0.375 2.625 0.375 5 1 C4.855625 1.82242188 4.71125 2.64484375 4.5625 3.4921875 C2.38243044 15.30307014 2.38243044 15.30307014 4 27 C0.98968256 27.93423645 0.13349732 28.04449911 -3 27 C-3.99 27.66 -4.98 28.32 -6 29 C-8 29 -10 29 -12 29 C-12.66 29.66 -13.32 30.32 -14 31 C-16.82957829 30.63723355 -19.29084291 29.90305236 -22 29 C-23.3921875 29.99 -23.3921875 29.99 -24.8125 31 C-28 33 -28 33 -31.1875 33 C-34.35667338 31.8731828 -35.33515932 30.86722561 -37 28 C-38.26237731 30.52475462 -38.09856404 32.31200466 -38.0625 35.125 C-38.05347656 36.03507812 -38.04445312 36.94515625 -38.03515625 37.8828125 C-38.02355469 38.58148438 -38.01195312 39.28015625 -38 40 C-41.71599191 40.20086443 -42.77208445 40.1519437 -46 38 C-46.99 38.66 -47.98 39.32 -49 40 C-52.375 40.5 -52.375 40.5 -56 40 C-59.09104317 37.43509184 -60.57019223 35.83454536 -61.48046875 31.94921875 C-61.90281115 25.5227655 -59.53637714 20.26323143 -56 15 C-52.89231396 11.67956284 -49.78395428 9.19821714 -45.1875 8.6875 C-41.30571912 9.06806675 -39.79527955 10.36914866 -37 13 C-37.75 18.75 -37.75 18.75 -40 21 C-42.625 21.125 -42.625 21.125 -45 21 C-44.01 17.535 -44.01 17.535 -43 14 C-48.17648936 16.36639514 -50.69057446 19.95129235 -53 25 C-53.91282451 28.30781253 -54.53349143 31.60214652 -55 35 C-52.69 34.34 -50.38 33.68 -48 33 C-48 30.3534665 -48.98139634 28.4191837 -50 26 C-45.89542386 23.01485372 -43.02254631 22.7045561 -38 23 C-37.5875 22.071875 -37.175 21.14375 -36.75 20.1875 C-34.11239193 15.3832853 -34.11239193 15.3832853 -31 14 C-27.375 14.5 -27.375 14.5 -24 16 C-23.34 17.65 -22.68 19.3 -22 21 C-21.01 15.39 -20.02 9.78 -19 4 C-16 3 -16 3 -13.8125 3.9375 C-13.214375 4.288125 -12.61625 4.63875 -12 5 C-12.144375 5.53367187 -12.28875 6.06734375 -12.4375 6.6171875 C-13.90368411 12.50228763 -14.22734497 17.95009776 -14 24 C-13.91363281 23.40832031 -13.82726562 22.81664063 -13.73828125 22.20703125 C-12.77037479 16.76366739 -11.71792347 13.36994534 -7 10 C-4.8359375 10.3828125 -4.8359375 10.3828125 -3 11 C-2.95101562 10.37351562 -2.90203125 9.74703125 -2.8515625 9.1015625 C-2.77679688 8.28429687 -2.70203125 7.46703125 -2.625 6.625 C-2.55539063 5.81289062 -2.48578125 5.00078125 -2.4140625 4.1640625 C-2 2 -2 2 0 0 Z M-5 15 C-6.85776765 18.13498292 -7.20140476 20.37471432 -7 24 C-4.23776722 21.23776722 -4.42143709 18.79293383 -4 15 C-4.33 15 -4.66 15 -5 15 Z M-29 18 C-31.32590854 21.63423209 -31.16265833 24.77088331 -31 29 C-30.34 29 -29.68 29 -29 29 C-28.62875 27.741875 -28.2575 26.48375 -27.875 25.1875 C-27.66617188 24.47980469 -27.45734375 23.77210937 -27.2421875 23.04296875 C-26.73906252 20.68854587 -26.73906252 20.68854587 -29 18 Z " fill="#FBDF72" transform="translate(171,64)"/>
<path d="M0 0 C0.99 0.33 1.98 0.66 3 1 C2.39009109 4.55780196 1.4216319 7.6828589 0 11 C1.32 11.66 2.64 12.32 4 13 C4 13.66 4 14.32 4 15 C4.66 15 5.32 15 6 15 C6.268125 14.195625 6.53625 13.39125 6.8125 12.5625 C7.204375 11.716875 7.59625 10.87125 8 10 C11 9 11 9 14 9 C16.93446884 8.46646021 17.82586238 8.17413762 20 6 C22.45098556 6.39532025 24.63904279 7.21301426 27 8 C27 9.65 27 11.3 27 13 C28.65 10.36 30.3 7.72 32 5 C32.99 5.33 33.98 5.66 35 6 C35 7.32 35 8.64 35 10 C35.99 8.02 36.98 6.04 38 4 C38.99 4.33 39.98 4.66 41 5 C40.37727768 12.4071181 39.29512034 19.68194135 38 27 C36.35 26.67 34.7 26.34 33 26 C33 24.02 33 22.04 33 20 C31.16299211 19.22757731 31.16299211 19.22757731 29 19 C28.505 19.495 28.01 19.99 27.5 20.5 C27.005 20.995 26.51 21.49 26 22 C23.9375 21.6875 23.9375 21.6875 22 21 C21.34 21 20.68 21 20 21 C19.484375 21.639375 18.96875 22.27875 18.4375 22.9375 C15.02982962 25.8209134 11.42247549 26.25612792 7 26 C6.34 25.34 5.68 24.68 5 24 C3.68 25.65 2.36 27.3 1 29 C-1.375 28.75 -1.375 28.75 -4 28 C-4.66 26.68 -5.32 25.36 -6 24 C-7.32 26.64 -8.64 29.28 -10 32 C-11 28 -11 28 -11 25 C-11.66 25 -12.32 25 -13 25 C-14.67357513 19.71502591 -14.67357513 19.71502591 -15 17 C-13.625 14.5 -13.625 14.5 -12 13 C-12.515625 12.2575 -13.03125 11.515 -13.5625 10.75 C-15 8 -15 8 -14.6875 5.6875 C-14.460625 5.130625 -14.23375 4.57375 -14 4 C-12.80375 4.268125 -11.6075 4.53625 -10.375 4.8125 C-7.76559318 5.16811828 -6.507401 5.31164097 -4.23828125 3.91796875 C-2.81841749 2.61970541 -1.40867492 1.31039527 0 0 Z M-6 10 C-6.33 10.66 -6.66 11.32 -7 12 C-6.34 12.66 -5.68 13.32 -5 14 C-5.33 12.68 -5.66 11.36 -6 10 Z M18 10 C19 14 19 14 19 14 Z M33 12 C34 14 34 14 34 14 Z M11 14 C10.67 15.98 10.34 17.96 10 20 C10.66 19.67 11.32 19.34 12 19 C12 17.35 12 15.7 12 14 C11.67 14 11.34 14 11 14 Z M-1 16 C-1 18.31 -1 20.62 -1 23 C-0.67 23 -0.34 23 0 23 C0 20.69 0 18.38 0 16 C-0.33 16 -0.66 16 -1 16 Z M-11 19 C-10 21 -10 21 -10 21 Z " fill="#FEE375" transform="translate(110,1)"/>
<path d="M0 0 C4.10098936 2.55344621 4.75224609 3.97359096 5.875 8.625 C6 12 6 12 5 15 C4.01 15 3.02 15 2 15 C1.8453125 13.9171875 1.8453125 13.9171875 1.6875 12.8125 C0.88479885 9.52872255 0.25768011 7.54899367 -2 5 C-8.94741444 3.78115536 -14.22253578 6.17738967 -20 10 C-25.05077506 14.26721666 -27.84154622 19.50597546 -29 26 C-29.1590276 29.81003614 -28.86038985 32.898701 -26.4375 36 C-22.90290197 37.4500915 -19.71733722 37.64532436 -16 37 C-13.80758253 36.06206739 -11.80348099 35.0073709 -9.76171875 33.77734375 C-8 33 -8 33 -5 34 C-5 36.1875 -5 36.1875 -6 39 C-10.4804525 43.2230897 -15.55183634 44.81692858 -21.609375 45.1328125 C-26.57608569 44.85688413 -29.89170109 42.81275253 -33.8125 39.9375 C-37.353332 35.18266846 -38.40318701 30.33777602 -37.69140625 24.4453125 C-35.0548815 13.93196537 -28.49265229 7.76651646 -19.453125 2.3125 C-13.34683638 -0.95455888 -6.76197764 -0.68806088 0 0 Z " fill="#E0AB47" transform="translate(80,0)"/>
<path d="M0 0 C2.625 0.375 2.625 0.375 5 1 C4.855625 1.82242188 4.71125 2.64484375 4.5625 3.4921875 C2.38243044 15.30307014 2.38243044 15.30307014 4 27 C0.98968256 27.93423645 0.13349732 28.04449911 -3 27 C-3.99 27.66 -4.98 28.32 -6 29 C-8 29 -10 29 -12 29 C-12.66 29.66 -13.32 30.32 -14 31 C-16.82957829 30.63723355 -19.29084291 29.90305236 -22 29 C-23.99961564 28.96079185 -26.00049364 28.95556653 -28 29 C-28.79953138 25.71303767 -29.09658936 24.28976808 -28 21 C-28.33 20.34 -28.66 19.68 -29 19 C-29.66 19 -30.32 19 -31 19 C-31.33 18.01 -31.66 17.02 -32 16 C-29.36 16 -26.72 16 -24 16 C-23.34 17.65 -22.68 19.3 -22 21 C-21.01 15.39 -20.02 9.78 -19 4 C-16 3 -16 3 -13.8125 3.9375 C-12.9153125 4.4634375 -12.9153125 4.4634375 -12 5 C-12.144375 5.53367187 -12.28875 6.06734375 -12.4375 6.6171875 C-13.90368411 12.50228763 -14.22734497 17.95009776 -14 24 C-13.91363281 23.40832031 -13.82726562 22.81664063 -13.73828125 22.20703125 C-12.77037479 16.76366739 -11.71792347 13.36994534 -7 10 C-4.8359375 10.3828125 -4.8359375 10.3828125 -3 11 C-2.95101562 10.37351562 -2.90203125 9.74703125 -2.8515625 9.1015625 C-2.77679688 8.28429687 -2.70203125 7.46703125 -2.625 6.625 C-2.55539063 5.81289062 -2.48578125 5.00078125 -2.4140625 4.1640625 C-2 2 -2 2 0 0 Z M-5 15 C-6.85776765 18.13498292 -7.20140476 20.37471432 -7 24 C-4.23776722 21.23776722 -4.42143709 18.79293383 -4 15 C-4.33 15 -4.66 15 -5 15 Z " fill="#FFCF5D" transform="translate(171,64)"/>
<path d="M0 0 C0.99 0.66 1.98 1.32 3 2 C3.1875 4.625 3.1875 4.625 3 7 C1.35 7.66 -0.3 8.32 -2 9 C-2.66 8.01 -3.32 7.02 -4 6 C-3.855625 7.175625 -3.71125 8.35125 -3.5625 9.5625 C-3.47484375 10.29210938 -3.3871875 11.02171875 -3.296875 11.7734375 C-3.03274908 13.75438191 -2.67878539 15.72287834 -2.3125 17.6875 C-1.96897621 21.32885218 -2.18218448 22.86013683 -4 26 C-7.01047389 29.49865885 -9.49348878 31.84717155 -14 33 C-16.6915441 33.14562459 -19.30009134 33.09152233 -22 33 C-22 32.34 -22 31.68 -22 31 C-23.175625 30.566875 -23.175625 30.566875 -24.375 30.125 C-27 29 -27 29 -29 27 C-29.40047444 24.67724823 -29.7397104 22.34260643 -30 20 C-29.34 20 -28.68 20 -28 20 C-27.67 19.01 -27.34 18.02 -27 17 C-25.02 16.67 -23.04 16.34 -21 16 C-21 15.34 -21 14.68 -21 14 C-20.21625 13.608125 -19.4325 13.21625 -18.625 12.8125 C-15.64833273 11.18815237 -15.64833273 11.18815237 -15.1875 7.625 C-13.72504671 3.16066891 -12.09761782 2.02272856 -8.09765625 -0.19140625 C-5.047806 -1.36704685 -3.04938155 -1.06373775 0 0 Z M-14 12 C-14.433125 12.45375 -14.86625 12.9075 -15.3125 13.375 C-17.09401172 15.0905298 -18.75617404 15.99414699 -21 17 C-20.34 17 -19.68 17 -19 17 C-19.33 17.94875 -19.66 18.8975 -20 19.875 C-21.10159191 22.77062452 -21.10159191 22.77062452 -21 25 C-18.06556598 24.73343428 -18.06556598 24.73343428 -15 24 C-12.86413322 20.79619983 -12.76867825 19.98060033 -12.875 16.3125 C-12.90207031 15.10013672 -12.90207031 15.10013672 -12.9296875 13.86328125 C-12.95289063 13.24839844 -12.97609375 12.63351563 -13 12 C-13.33 12 -13.66 12 -14 12 Z " fill="#FBFAF8" transform="translate(197,28)"/>
<path d="M0 0 C0.99 0.33 1.98 0.66 3 1 C2.37727768 8.4071181 1.29512034 15.68194135 0 23 C-1.65 22.67 -3.3 22.34 -5 22 C-5 20.02 -5 18.04 -5 16 C-6.83700789 15.22757731 -6.83700789 15.22757731 -9 15 C-9.495 15.495 -9.99 15.99 -10.5 16.5 C-10.995 16.995 -11.49 17.49 -12 18 C-14.125 17.875 -14.125 17.875 -16 17 C-16.33 16.01 -16.66 15.02 -17 14 C-17.99 14 -18.98 14 -20 14 C-20.05395478 12.37536158 -20.09277195 10.75021459 -20.125 9.125 C-20.14820312 8.22007813 -20.17140625 7.31515625 -20.1953125 6.3828125 C-20 4 -20 4 -18 2 C-15.54901444 2.39532025 -13.36095721 3.21301426 -11 4 C-11 5.65 -11 7.3 -11 9 C-9.35 6.36 -7.7 3.72 -6 1 C-5.01 1.33 -4.02 1.66 -3 2 C-3 3.32 -3 4.64 -3 6 C-2.01 4.02 -1.02 2.04 0 0 Z M-5 8 C-4 10 -4 10 -4 10 Z " fill="#FFCB5A" transform="translate(148,5)"/>
<path d="M0 0 C-1 3 -1 3 -3.21484375 4.28125 C-4.56255859 4.88453125 -4.56255859 4.88453125 -5.9375 5.5 C-10.14373463 7.37875143 -10.14373463 7.37875143 -13 11 C-13.16699232 14.12521833 -13.16699232 14.12521833 -13 17 C-10.44848941 17.95681647 -8.63707941 18.2094162 -6.02734375 17.3515625 C-1.54084859 15.25506943 1.06340344 13.06605677 4 9 C4.66 9 5.32 9 6 9 C6 15.92523364 6 15.92523364 3.328125 18.796875 C-2.46035361 23.19263696 -7.5453734 25.93182832 -15 25 C-17.9375 23 -17.9375 23 -20 20 C-20.68495465 15.20531742 -20.56712403 13.1124356 -18.375 8.8125 C-13.40136919 2.92267404 -8.13366546 -2.32390442 0 0 Z " fill="#E0AC48" transform="translate(75,6)"/>
<path d="M0 0 C0.99 0.33 1.98 0.66 3 1 C5.14255793 0.61067144 5.14255793 0.61067144 7 0 C9.125 5.625 9.125 5.625 8 9 C8.66 9 9.32 9 10 9 C9.8125 11.375 9.8125 11.375 9 14 C5.3065465 16.17261971 1.23488334 16.68038616 -3 17 C-3.66 16.34 -4.32 15.68 -5 15 C-5.598125 15.825 -6.19625 16.65 -6.8125 17.5 C-7.8953125 18.7375 -7.8953125 18.7375 -9 20 C-9.99 20 -10.98 20 -12 20 C-12.33 18.35 -12.66 16.7 -13 15 C-12.01 14.67 -11.02 14.34 -10 14 C-10.33 10.37 -10.66 6.74 -11 3 C-9.35 3.33 -7.7 3.66 -6 4 C-6 4.66 -6 5.32 -6 6 C-5.34 6 -4.68 6 -4 6 C-3.71125 5.195625 -3.4225 4.39125 -3.125 3.5625 C-2 1 -2 1 0 0 Z M1 5 C0.67 6.98 0.34 8.96 0 11 C0.66 10.67 1.32 10.34 2 10 C2 8.35 2 6.7 2 5 C1.67 5 1.34 5 1 5 Z " fill="#FFDE6F" transform="translate(120,10)"/>
<path d="M0 0 C2.625 0.375 2.625 0.375 5 1 C4.855625 1.82242188 4.71125 2.64484375 4.5625 3.4921875 C2.38243044 15.30307014 2.38243044 15.30307014 4 27 C0.40900664 28.24303616 -2.31668957 27.68116015 -6 27 C-5.82082031 26.16855469 -5.64164063 25.33710937 -5.45703125 24.48046875 C-5.13798828 22.85044922 -5.13798828 22.85044922 -4.8125 21.1875 C-4.59207031 20.10855469 -4.37164062 19.02960938 -4.14453125 17.91796875 C-3.68377183 14.99013079 -3.68377183 14.99013079 -5.44921875 13.11328125 C-5.96097656 12.74589844 -6.47273437 12.37851563 -7 12 C-5.35 12 -3.7 12 -2 12 C-2.02320313 11.30132812 -2.04640625 10.60265625 -2.0703125 9.8828125 C-2.09738281 8.51769531 -2.09738281 8.51769531 -2.125 7.125 C-2.14820313 6.22007813 -2.17140625 5.31515625 -2.1953125 4.3828125 C-2 2 -2 2 0 0 Z " fill="#FFC451" transform="translate(171,64)"/>
<path d="M0 0 C0.99 0.33 1.98 0.66 3 1 C5.14255793 0.61067144 5.14255793 0.61067144 7 0 C9.125 5.625 9.125 5.625 8 9 C8.66 9 9.32 9 10 9 C9.8125 11.375 9.8125 11.375 9 14 C6.625 15.375 6.625 15.375 4 16 C3.01 15.67 2.02 15.34 1 15 C1.33 11.7 1.66 8.4 2 5 C1.34 5 0.68 5 0 5 C-0.33 5.66 -0.66 6.32 -1 7 C-1.66 6.67 -2.32 6.34 -3 6 C-2.625 3.5625 -2.625 3.5625 -2 1 C-1.34 0.67 -0.68 0.34 0 0 Z " fill="#FFD565" transform="translate(120,10)"/>
<path d="M0 0 C0.763125 0.20625 1.52625 0.4125 2.3125 0.625 C2.3125 0.955 2.3125 1.285 2.3125 1.625 C0.6625 1.955 -0.9875 2.285 -2.6875 2.625 C-2.501875 3.305625 -2.31625 3.98625 -2.125 4.6875 C-1.60226057 8.19732191 -2.07371423 11.14688063 -2.6875 14.625 C-2.0275 14.625 -1.3675 14.625 -0.6875 14.625 C-0.6875 13.965 -0.6875 13.305 -0.6875 12.625 C1.7875 13.615 1.7875 13.615 4.3125 14.625 C2.6875 16.6875 2.6875 16.6875 0.3125 18.625 C-3.14573592 18.625 -4.93425753 18.27781014 -7.5625 16 C-9.139515 12.67074611 -9.07121319 10.27027529 -8.6875 6.625 C-6.79114686 2.56138614 -4.93277984 -0.68829486 0 0 Z " fill="#FFDB6B" transform="translate(142.6875,78.375)"/>
<path d="M0 0 C0.66 0.33 1.32 0.66 2 1 C2 2.65 2 4.3 2 6 C3.65 5.01 5.3 4.02 7 3 C7.48211921 9.38807947 7.48211921 9.38807947 5.375 12.0625 C2.04068219 13.37867808 0.25202805 12.27253272 -3 11 C-3.99 11.495 -3.99 11.495 -5 12 C-5.66 10.35 -6.32 8.7 -7 7 C-6.34 7 -5.68 7 -5 7 C-4.731875 6.401875 -4.46375 5.80375 -4.1875 5.1875 C-3.01506533 3.02775192 -1.80630718 1.64209744 0 0 Z " fill="#ECC25A" transform="translate(80,25)"/>
<path d="M0 0 C-0.33 0.66 -0.66 1.32 -1 2 C-1.886875 2.226875 -2.77375 2.45375 -3.6875 2.6875 C-9.73176201 5.08239627 -12.73118515 9.90648232 -15.375 15.6875 C-17.51095974 21.41575567 -17.37325437 26.96572103 -17 33 C-17.99 32.67 -18.98 32.34 -20 32 C-21.11544424 21.34131059 -19.00544659 13.77548653 -13 5 C-8.64949832 0.73667708 -6.06780518 -1.43711175 0 0 Z " fill="#997734" transform="translate(30,51)"/>
<path d="M0 0 C0.66 0 1.32 0 2 0 C1.81135212 8.36910573 -0.07697582 13.95042665 -5.9375 20 C-8.70451004 21.34158063 -10.96920231 21.2066453 -14 21 C-14.0825 21.5775 -14.165 22.155 -14.25 22.75 C-15.27746865 25.83240595 -16.38259716 27.05372609 -19 29 C-21.70220368 29.62517523 -24.21492576 29.81432838 -27 30 C-27 29.34 -27 28.68 -27 28 C-25.9275 27.773125 -24.855 27.54625 -23.75 27.3125 C-19.0153821 25.65538374 -17.20124963 23.40249925 -15 19 C-13.59493703 18.60228589 -12.17510365 18.25602482 -10.75 17.9375 C-6.75633892 16.68471141 -5.09554245 15.38021913 -3 11.75 C-1.12502709 7.81320121 -0.27674055 4.33560196 0 0 Z " fill="#9C7C3C" transform="translate(77,69)"/>
<path d="M0 0 C1.32 0.33 2.64 0.66 4 1 C3.67 1.33 3.34 1.66 3 2 C3.40832934 5.94718365 3.96012686 9.78613498 4.6875 13.6875 C5.03102379 17.32885218 4.81781552 18.86013683 3 22 C-0.01047389 25.49865885 -2.49348878 27.84717155 -7 29 C-9.6915441 29.14562459 -12.30009134 29.09152233 -15 29 C-15 28.34 -15 27.68 -15 27 C-14.40832031 26.89042969 -13.81664062 26.78085937 -13.20703125 26.66796875 C-6.63630232 25.41112387 -6.63630232 25.41112387 -1 22 C0.84074773 18.97167308 2.2187009 16.63704058 1.734375 13.01171875 C1.3686354 11.6663195 0.9737297 10.3285252 0.55078125 9 C-0.29007899 5.94666352 -0.13125015 3.15000364 0 0 Z " fill="#9B7A37" transform="translate(190,32)"/>
<path d="M0 0 C0.66 0.66 1.32 1.32 2 2 C1.83652072 5.18784595 1.44027683 6.57439906 -0.875 8.8125 C-3 10 -3 10 -6 10 C-6 9.34 -6 8.68 -6 8 C-6.99 7.67 -7.98 7.34 -9 7 C-9.25 4.6875 -9.25 4.6875 -9 2 C-6.07557433 -1.24936186 -4.04996841 -1.38551551 0 0 Z " fill="#F9F7F2" transform="translate(162,24)"/>
<path d="M0 0 C0.66 0 1.32 0 2 0 C2 6.90420561 2 6.90420561 -0.671875 9.83203125 C-4.22373041 12.57603985 -7.3971392 14.7123212 -12 15 C-11.34 14.01 -10.68 13.02 -10 12 C-10 11.34 -10 10.68 -10 10 C-10.66 9.67 -11.32 9.34 -12 9 C-11.46890625 8.76925781 -10.9378125 8.53851563 -10.390625 8.30078125 C-5.73616406 6.15191516 -3.05911985 4.2357044 0 0 Z " fill="#EABF57" transform="translate(79,15)"/>
<path d="M0 0 C0.66 0.33 1.32 0.66 2 1 C0.49992312 5.79129034 -1.38676535 10.30329856 -3.4375 14.875 C-5.81900644 20.19113696 -7.99852072 25.52806581 -10 31 C-10.66 31 -11.32 31 -12 31 C-11.53059432 24.09582482 -8.80942844 18.38378225 -6 12.125 C-5.5359375 11.06796875 -5.071875 10.0109375 -4.59375 8.921875 C-1.16316244 1.16316244 -1.16316244 1.16316244 0 0 Z " fill="#987633" transform="translate(120,33)"/>
<path d="M0 0 C0.66 0 1.32 0 2 0 C1.71253906 0.69351563 1.42507812 1.38703125 1.12890625 2.1015625 C-1.74445424 9.47884099 -4.26433436 17.09159437 -5 25 C-6.98 25.66 -8.96 26.32 -11 27 C-11.33 26.34 -11.66 25.68 -12 25 C-11.360625 24.773125 -10.72125 24.54625 -10.0625 24.3125 C-7.78825198 23.17914854 -7.78825198 23.17914854 -7.3125 20.75 C-7.1578125 19.38875 -7.1578125 19.38875 -7 18 C-6.06903153 11.69102617 -4.64112293 4.64112293 0 0 Z " fill="#9E7E3D" transform="translate(46,69)"/>
<path d="M0 0 C0 0.66 0 1.32 0 2 C-1.66666667 3.66666667 -3.33333333 5.33333333 -5 7 C-8.46675418 11.4939406 -9.09666911 16.52687757 -10 22 C-11.98 22.66 -13.96 23.32 -16 24 C-16.66 23.34 -17.32 22.68 -18 22 C-17.2059375 21.77570312 -16.411875 21.55140625 -15.59375 21.3203125 C-12.81342026 20.25751985 -12.81342026 20.25751985 -12.03125 17.6796875 C-11.8559375 16.75414063 -11.680625 15.82859375 -11.5 14.875 C-10.2726907 9.54497105 -8.4590758 5.26961832 -5 1 C-3 0 -3 0 0 0 Z " fill="#95732F" transform="translate(176,36)"/>
<path d="M0 0 C-1 3 -1 3 -3.1796875 4.28125 C-4.06914063 4.6834375 -4.95859375 5.085625 -5.875 5.5 C-9.15979737 6.99396032 -11.60549489 8.27248425 -14 11 C-14.66 10.67 -15.32 10.34 -16 10 C-15.33333333 8.66666667 -14.66666667 7.33333333 -14 6 C-13.773125 5.319375 -13.54625 4.63875 -13.3125 3.9375 C-10.23014037 -0.61264992 -5.00178354 -1.66726118 0 0 Z " fill="#E8BC57" transform="translate(75,6)"/>
<path d="M0 0 C0.66 0.66 1.32 1.32 2 2 C1.67 2.99 1.34 3.98 1 5 C1.66 5 2.32 5 3 5 C3.33 5.66 3.66 6.32 4 7 C4.66 7.33 5.32 7.66 6 8 C5.27991594 12.60853797 3.68704061 16.67237409 2 21 C1.67 21 1.34 21 1 21 C0.67 19.35 0.34 17.7 0 16 C-0.66 16 -1.32 16 -2 16 C-1.835 15.236875 -1.67 14.47375 -1.5 13.6875 C-0.94440955 10.70120134 -1.00060296 7.97045516 -1.0625 4.9375 C-1 2 -1 2 0 0 Z " fill="#F0CC65" transform="translate(81,10)"/>
<path d="M0 0 C0.33 0.99 0.66 1.98 1 3 C-2.34431071 8.52538291 -7.96461471 11.9882049 -14 14 C-15.39439664 14.06665376 -16.79169875 14.08538199 -18.1875 14.0625 C-20.0746875 14.0315625 -20.0746875 14.0315625 -22 14 C-22 13.34 -22 12.68 -22 12 C-21.14728516 11.85304688 -21.14728516 11.85304688 -20.27734375 11.703125 C-11.37089072 9.9783361 -6.14496134 6.59459266 0 0 Z " fill="#987632" transform="translate(31,85)"/>
<path d="M0 0 C0.66 0.33 1.32 0.66 2 1 C2.28951652 6.59731932 2.18452849 10.1683016 -1 15 C-4.04616611 18.21539756 -5.33783428 18.9565793 -9.8125 19.25 C-10.864375 19.1675 -11.91625 19.085 -13 19 C-12 17 -12 17 -10.2578125 16.32421875 C-9.20207031 16.00904297 -9.20207031 16.00904297 -8.125 15.6875 C-5.30739806 14.66429214 -4.124765 14.13683903 -2.0625 11.875 C-0.61717304 7.96411528 -0.26172594 4.14248985 0 0 Z " fill="#936F28" transform="translate(38,51)"/>
<path d="M0 0 C0.66 0 1.32 0 2 0 C2.15010038 3.67745923 2.08708828 6.69809397 1.0625 10.25 C-0.32136654 15.13423484 -0.65302831 19.95064883 -1 25 C-1.66 25 -2.32 25 -3 25 C-3.05441656 23.10448978 -3.09298035 21.2085208 -3.125 19.3125 C-3.14820313 18.25675781 -3.17140625 17.20101562 -3.1953125 16.11328125 C-2.99621016 12.93958994 -2.25471493 10.88964649 -1 8 C-0.56111075 5.79745973 -0.56111075 5.79745973 -0.375 3.6875 C-0.25125 2.470625 -0.1275 1.25375 0 0 Z " fill="#977535" transform="translate(56,64)"/>
<path d="M0 0 C0.66 0 1.32 0 2 0 C2 0.99 2 1.98 2 3 C1.34 3 0.68 3 0 3 C-0.50636607 4.74816858 -1.00484619 6.49862263 -1.5 8.25 C-1.7784375 9.22453125 -2.056875 10.1990625 -2.34375 11.203125 C-3.15228866 14.17023413 -3.15228866 14.17023413 -3 18 C-3.99 17.67 -4.98 17.34 -6 17 C-6.4989111 11.01306681 -5.20009713 7.08044617 -2 2 C-1.34 1.34 -0.68 0.68 0 0 Z " fill="#9C7C3D" transform="translate(93,54)"/>
<path d="M0 0 C0.33 0 0.66 0 1 0 C1.37162231 3.26455902 1.31732134 4.58769812 -0.72265625 7.23828125 C-7.81570303 13.52610736 -7.81570303 13.52610736 -12.0625 13.5 C-13.031875 13.335 -14.00125 13.17 -15 13 C-15 12.34 -15 11.68 -15 11 C-14.12988281 10.814375 -14.12988281 10.814375 -13.2421875 10.625 C-7.19171441 9.02751535 -4.49242853 6.88416065 -1.09375 1.64453125 C-0.55234375 0.83048828 -0.55234375 0.83048828 0 0 Z " fill="#9A7937" transform="translate(99,70)"/>
<path d="M0 0 C0 0.66 0 1.32 0 2 C-0.78375 2.598125 -1.5675 3.19625 -2.375 3.8125 C-6.7462622 7.4552185 -7.2367585 11.53010258 -8 17 C-8.66 17 -9.32 17 -10 17 C-11.52111098 12.36423319 -10.13318077 9.2230042 -8 5 C-3.76923077 0 -3.76923077 0 0 0 Z " fill="#9E7E3F" transform="translate(133,42)"/>
<path d="M0 0 C0.99 0.33 1.98 0.66 3 1 C1.23570801 5.97209562 -1.3939166 10.43438061 -4 15 C-4.99 15 -5.98 15 -7 15 C-3.535 7.575 -3.535 7.575 0 0 Z " fill="#9E7F3F" transform="translate(53,48)"/>
<path d="M0 0 C0.66 0 1.32 0 2 0 C1.23204914 3.56363712 -0.05487096 6.81913666 -1.4375 10.1875 C-2.08525391 11.78658203 -2.08525391 11.78658203 -2.74609375 13.41796875 C-4 16 -4 16 -6 17 C-5.62964591 10.21017493 -3.59523599 5.73115109 0 0 Z " fill="#987633" transform="translate(157,35)"/>
<path d="M0 0 C0.93065133 2.60582371 1.14917407 3.64198224 0.0625 6.25 C-0.288125 6.8275 -0.63875 7.405 -1 8 C-1.33 7.01 -1.66 6.02 -2 5 C-2.99 5.66 -3.98 6.32 -5 7 C-5 6.34 -5 5.68 -5 5 C-5.66 4.34 -6.32 3.68 -7 3 C-6.67 2.01 -6.34 1.02 -6 0 C-3.50907189 -1.24546405 -2.58919267 -0.7767578 0 0 Z " fill="#F6D670" transform="translate(92,16)"/>
<path d="M0 0 C0.8125 1.625 0.8125 1.625 1 4 C-1.72236034 8.33876179 -2.74831463 9.71272795 -7.8125 10.875 C-8.864375 10.91625 -9.91625 10.9575 -11 11 C-10 9 -10 9 -7.75 7.75 C-4.3366741 5.57788352 -2.47635955 3.18389085 0 0 Z " fill="#967431" transform="translate(114,64)"/>
<path d="M0 0 C0.33 0.99 0.66 1.98 1 3 C0.319375 4.0828125 0.319375 4.0828125 -0.375 5.1875 C-2.50728728 8.87799721 -2.64177132 11.77290158 -3 16 C-3.66 16 -4.32 16 -5 16 C-5.51257038 9.59287031 -5.13597047 6.01329753 -1 1 C-0.67 0.67 -0.34 0.34 0 0 Z " fill="#936F2B" transform="translate(69,63)"/>
<path d="M0 0 C0.66 0.33 1.32 0.66 2 1 C1.54705135 2.75140143 1.08741252 4.50107344 0.625 6.25 C0.36976563 7.22453125 0.11453125 8.1990625 -0.1484375 9.203125 C-0.89598509 11.65837303 -1.77123817 13.75617405 -3 16 C-3.33 16 -3.66 16 -4 16 C-4.6319296 9.99666876 -2.37544123 5.36595205 0 0 Z " fill="#987632" transform="translate(141,39)"/>
<path d="M0 0 C0.99 0.33 1.98 0.66 3 1 C2.13375 1.928125 2.13375 1.928125 1.25 2.875 C-1.69238307 6.96164315 -3.28191268 11.29353741 -5 16 C-5.33 16 -5.66 16 -6 16 C-5.64455443 9.36501601 -3.86904957 5.36812782 0 0 Z " fill="#D89C3D" transform="translate(49,11)"/>
<path d="M0 0 C0.33 1.32 0.66 2.64 1 4 C-4.29230769 8.92307692 -4.29230769 8.92307692 -7.875 9.3125 C-8.926875 9.1578125 -8.926875 9.1578125 -10 9 C-10 8.34 -10 7.68 -10 7 C-8.906875 6.5875 -7.81375 6.175 -6.6875 5.75 C-3.48984058 4.39714409 -1.79346574 3.05944156 0 0 Z " fill="#967330" transform="translate(128,60)"/>
<path d="M0 0 C0.66 0 1.32 0 2 0 C1.74931852 3.38419999 0.69457439 4.3123671 -1.75 6.8125 C-5 9 -5 9 -7.875 8.8125 C-8.57625 8.544375 -9.2775 8.27625 -10 8 C-9.443125 7.7525 -8.88625 7.505 -8.3125 7.25 C-4.95956419 5.43760226 -1.73442754 3.46885508 0 0 Z " fill="#95732E" transform="translate(141,56)"/>
<path d="M0 0 C0.66 0.33 1.32 0.66 2 1 C1.875 2.75 1.875 2.75 1 5 C-1.99745277 7.45246136 -3.97875396 8.911196 -7.875 9.25 C-8.57625 9.1675 -9.2775 9.085 -10 9 C-10 8.34 -10 7.68 -10 7 C-8.906875 6.5875 -7.81375 6.175 -6.6875 5.75 C-3.48984058 4.39714409 -1.79346574 3.05944156 0 0 Z " fill="#9A7938" transform="translate(156,52)"/>
<path d="M0 0 C2.78637633 4.1795645 1.79562512 6.14668677 1 11 C-0.98 11.66 -2.96 12.32 -5 13 C-5.66 12.34 -6.32 11.68 -7 11 C-6.21625 10.855625 -5.4325 10.71125 -4.625 10.5625 C-1.84843237 9.28463143 -1.84843237 9.28463143 -1.22265625 6.86328125 C-0.73164391 4.58025309 -0.31887599 2.31304073 0 0 Z " fill="#9C7B38" transform="translate(165,47)"/>
<path d="M0 0 C0.33 0.99 0.66 1.98 1 3 C-0.78174788 5.30142435 -2.16304165 6.80034391 -5.046875 7.48828125 C-7.0246611 7.72323102 -9.01271872 7.86751458 -11 8 C-11 7.34 -11 6.68 -11 6 C-9.9275 5.7525 -8.855 5.505 -7.75 5.25 C-4.00350563 4.00116854 -2.47926118 2.97511342 0 0 Z " fill="#94712B" transform="translate(61,91)"/>
<path d="M0 0 C0.33 0.99 0.66 1.98 1 3 C-0.81725675 5.82684384 -2.03937946 7.65310925 -5.25 8.8125 C-5.8275 8.874375 -6.405 8.93625 -7 9 C-5.44499019 5.18315774 -2.96404505 2.80804268 0 0 Z " fill="#926F2A" transform="translate(31,85)"/>
<path d="M0 0 C-0.33 0.66 -0.66 1.32 -1 2 C-3 2.66666667 -5 3.33333333 -7 4 C-9.30166675 5.51553153 -9.30166675 5.51553153 -11 7 C-9.54820416 1.43478261 -9.54820416 1.43478261 -7.1875 -0.4375 C-4.48685659 -1.13195116 -2.66170427 -0.7393623 0 0 Z " fill="#9E7F40" transform="translate(30,51)"/>
<path d="M0 0 C-1.33333333 3.33333333 -2.66666667 6.66666667 -4 10 C-4.66 10 -5.32 10 -6 10 C-5.38909774 3.52443609 -5.38909774 3.52443609 -3.5625 1.0625 C-2 0 -2 0 0 0 Z " fill="#94712C" transform="translate(48,69)"/>
<path d="M0 0 C0.33 0 0.66 0 1 0 C0.91253716 1.43861294 0.80434652 2.87597508 0.6875 4.3125 C0.62949219 5.11300781 0.57148438 5.91351563 0.51171875 6.73828125 C-0.09855752 9.4356092 -0.75035012 10.40928647 -3 12 C-4.32 12 -5.64 12 -7 12 C-7 11.34 -7 10.68 -7 10 C-6.21625 9.608125 -5.4325 9.21625 -4.625 8.8125 C-1.09553263 6.37548682 -0.84964244 4.09373178 0 0 Z " fill="#916D27" transform="translate(183,32)"/>
<path d="M0 0 C0.66 0.33 1.32 0.66 2 1 C0.84414715 4.91211733 -0.35534962 7.8745041 -3 11 C-4 8 -4 8 -3.22265625 5.95703125 C-2.83980469 5.24933594 -2.45695312 4.54164062 -2.0625 3.8125 C-1.68222656 3.09707031 -1.30195312 2.38164063 -0.91015625 1.64453125 C-0.60980469 1.10183594 -0.30945313 0.55914062 0 0 Z " fill="#9E7E3D" transform="translate(120,33)"/>
<path d="M0 0 C0.66 0.33 1.32 0.66 2 1 C1.6641593 4.10652645 1.40950721 5.60414303 -0.875 7.8125 C-3 9 -3 9 -6 9 C-6 8.34 -6 7.68 -6 7 C-5.071875 6.6596875 -5.071875 6.6596875 -4.125 6.3125 C-1.38589791 4.62070165 -0.94975528 3.00755839 0 0 Z " fill="#95732D" transform="translate(162,25)"/>
<path d="M0 0 C0.66 0 1.32 0 2 0 C1.85904936 1.6254308 1.71207913 3.25034051 1.5625 4.875 C1.48128906 5.77992187 1.40007812 6.68484375 1.31640625 7.6171875 C1 10 1 10 0 12 C-0.66 12 -1.32 12 -2 12 C-1.34 8.04 -0.68 4.08 0 0 Z " fill="#916E29" transform="translate(77,69)"/>
<path d="M0 0 C1.32 0.33 2.64 0.66 4 1 C3.67 1.33 3.34 1.66 3 2 C2.92820036 3.51928038 2.91607993 5.04167482 2.9375 6.5625 C2.94652344 7.38878906 2.95554688 8.21507812 2.96484375 9.06640625 C2.97644531 9.70449219 2.98804688 10.34257813 3 11 C0.39665076 8.28817788 0.00543309 7.10866187 -0.1875 3.25 C-0.125625 2.1775 -0.06375 1.105 0 0 Z " fill="#94712A" transform="translate(190,32)"/>
<path d="M0 0 C0.99 0.33 1.98 0.66 3 1 C2.67 2.65 2.34 4.3 2 6 C1.01 6 0.02 6 -1 6 C-1 5.34 -1 4.68 -1 4 C-1.66 3.34 -2.32 2.68 -3 2 C-2.01 1.34 -1.02 0.68 0 0 Z " fill="#E5B64F" transform="translate(72,33)"/>
<path d="M0 0 C0.33 0 0.66 0 1 0 C1.25 2.25 1.25 2.25 1 5 C-1 7.3125 -1 7.3125 -3 9 C-3.99 8.67 -4.98 8.34 -6 8 C-5.02471263 6.66382648 -4.04466681 5.3311249 -3.0625 4 C-2.24458984 2.88625 -2.24458984 2.88625 -1.41015625 1.75 C-0.94480469 1.1725 -0.47945313 0.595 0 0 Z " fill="#906B26" transform="translate(99,70)"/>
<path d="M0 0 C-1.0625 1.5 -1.0625 1.5 -3 3 C-6.6875 3.1875 -6.6875 3.1875 -10 3 C-9 1 -9 1 -7.25 0.375 C-4.79549443 -0.03408426 -2.4840589 -0.06900164 0 0 Z " fill="#9D7D3D" transform="translate(35,67)"/>
<path d="M0 0 C0.33 0 0.66 0 1 0 C1.36253776 5.43806647 1.36253776 5.43806647 -0.25 7.9375 C-2 9 -2 9 -4.1875 8.6875 C-4.785625 8.460625 -5.38375 8.23375 -6 8 C-4.7934375 7.13375 -4.7934375 7.13375 -3.5625 6.25 C-1.02133261 4.01873107 -0.34879632 3.25543229 0 0 Z " fill="#8E6927" transform="translate(101,53)"/>
<path d="M0 0 C0.66 0 1.32 0 2 0 C2 1.65 2 3.3 2 5 C0.35 5.66 -1.3 6.32 -3 7 C-2.690625 6.401875 -2.38125 5.80375 -2.0625 5.1875 C-0.89790296 2.91043228 -0.89790296 2.91043228 0 0 Z " fill="#9F8040" transform="translate(198,30)"/>
<path d="M0 0 C0.66 0 1.32 0 2 0 C1.75 2.875 1.75 2.875 1 6 C-1.0625 7.375 -1.0625 7.375 -3 8 C-2.01 5.36 -1.02 2.72 0 0 Z " fill="#957331" transform="translate(49,56)"/>
<path d="M0 0 C0.66 0 1.32 0 2 0 C1.67 2.31 1.34 4.62 1 7 C0.01 7 -0.98 7 -2 7 C-1.125 2.25 -1.125 2.25 0 0 Z " fill="#9C7C3A" transform="translate(176,45)"/>
<path d="M0 0 C0 0.66 0 1.32 0 2 C-4.47058824 6 -4.47058824 6 -7 6 C-6.75 4.125 -6.75 4.125 -6 2 C-3.85331506 0.61504198 -2.56128588 0 0 0 Z " fill="#8F6A25" transform="translate(133,42)"/>
</svg>
