<svg xmlns="http://www.w3.org/2000/svg" viewBox="0 0 64.51 66.22"><defs><style>.cls-1{fill:#c491ff;}</style></defs><g id="Layer_2" data-name="Layer 2"><g id="Layer_1-2" data-name="Layer 1"><path class="cls-1" d="M61.3,42.77A10,10,0,0,0,62.19,30a12.29,12.29,0,0,0-1.62-1.72L56.08,24l-6.35-5.94L58.23,9l-1.18-1.1-1.17-1.1-8.5,9.06S41.85,10.68,41,9.91L36.53,5.7A11.81,11.81,0,0,0,34.7,4.2,10,10,0,0,0,22,5.92C17.84,10.37,8.13,20.72,4,25.09l-4,4.3L19.65,47.81,39.31,66.22l4-4.31C47.43,57.54,57.12,47.18,61.3,42.77Zm-4.87.48c-.27.28-1.34,1.42-2.16,2.27l-1.18-1.28a5.59,5.59,0,0,1-1.31-3.68v-.38a11.37,11.37,0,0,0-.34-3.45,8.21,8.21,0,0,0-2.32-3.64A11.61,11.61,0,0,0,47.77,32a8.11,8.11,0,0,0-6.07-1.26A5.59,5.59,0,0,1,37,29.39L37,29.33l-.07-.06a5.56,5.56,0,0,1-1.65-4.57,8.12,8.12,0,0,0-1.67-6,12,12,0,0,0-1.16-1.28,8.22,8.22,0,0,0-3.78-2.07,11.34,11.34,0,0,0-3.46-.12l-.38,0A5.61,5.61,0,0,1,21,14.21l-1.35-1.1,2.13-2.3c1-1.07,1.94-2.18,3-3.19A6.44,6.44,0,0,1,30.07,6a7.14,7.14,0,0,1,4.19,2L46.34,19.32,58.41,30.64a7.07,7.07,0,0,1,2.31,4.06A6.48,6.48,0,0,1,59.42,40C58.48,41.17,57.44,42.23,56.43,43.25Z"/><path class="cls-1" d="M63.05,6.06a3.12,3.12,0,0,1-4.56-4.27C60.36-.2,64.44,0,64.44,0S65,4,63.05,6.06Z"/></g></g></svg>