<svg xmlns="http://www.w3.org/2000/svg" viewBox="0 0 94.33 64.6"><defs><style>.cls-1{fill:#c491ff;}</style></defs><g id="Layer_2" data-name="Layer 2"><g id="Layer_1-2" data-name="Layer 1"><g id="b34xOn"><path class="cls-1" d="M59,62.09l-.42,1.22a1.64,1.64,0,0,1-1.81,1.29l-10.12-.06L7,64.34c-1.69,0-3.38,0-5.07,0A1.82,1.82,0,0,1,0,62.92a1.79,1.79,0,0,1,.45-1.51L11,47.56l18.24-24,4.39-5.76a1.63,1.63,0,0,1,2.16-.65A36.48,36.48,0,0,1,60.43,53.44,38.45,38.45,0,0,1,59,62.09Zm-26.54-1a.48.48,0,0,0,.15,0l5.56,0c.23,0,.34-.11.46-.3a23.74,23.74,0,0,0,3.31-9c1.42-10.37-2.07-18.74-10.4-25.08-.32-.25-.47-.22-.72.11-1.35,1.82-2.73,3.62-4.11,5.42-.25.32-.24.5,0,.82a28.86,28.86,0,0,1,5.72,28Zm-15-16.5-5.31,7a.52.52,0,0,0,0,.55,27.64,27.64,0,0,1,1.73,8.57c0,.29.12.34.38.34,1.92,0,3.84,0,5.75,0,.33,0,.41-.11.45-.41a25.75,25.75,0,0,0,.25-4.64A25.49,25.49,0,0,0,17.39,44.64Zm32,16.66,6.19,0c.24,0,.32-.11.37-.31.17-.69.36-1.37.52-2.07a33.12,33.12,0,0,0-1.6-19.77c-.06-.15-.13-.3-.2-.46A29.51,29.51,0,0,1,49.41,61.3Z"/><path class="cls-1" d="M79.67,53a6.41,6.41,0,0,1-3-2,3.79,3.79,0,0,0-3.94-1.37,6.68,6.68,0,0,1-6.68-2.32,4.05,4.05,0,0,0-1.68-1.18,1.58,1.58,0,1,1,1-3A5.92,5.92,0,0,1,68.29,45a4,4,0,0,0,4.14,1.46A6.59,6.59,0,0,1,79,48.73a3.75,3.75,0,0,0,4,1.32,6.21,6.21,0,0,1,3.52.19,1.61,1.61,0,0,1,1.07,2,1.59,1.59,0,0,1-2,1,3.7,3.7,0,0,0-2.06-.07A6.44,6.44,0,0,1,79.67,53Z"/><path class="cls-1" d="M66.9,7.05a1.56,1.56,0,0,1,.58,2.62,3,3,0,0,0-.86,1.46,4.83,4.83,0,0,1-4.89,3.57,1.7,1.7,0,0,0-1.84,1.39,4.84,4.84,0,0,1-5.09,3.84,1.77,1.77,0,0,0-1.06.35,1.59,1.59,0,1,1-1.84-2.6,4.66,4.66,0,0,1,2.93-.91,1.75,1.75,0,0,0,2-1.48,4.84,4.84,0,0,1,4.95-3.76,1.71,1.71,0,0,0,1.84-1.4,4.94,4.94,0,0,1,1.76-2.8A1.56,1.56,0,0,1,66.9,7.05Z"/><path class="cls-1" d="M77,38.72a1.61,1.61,0,0,1-1.91,1,1.59,1.59,0,0,0-2.17,1.06,1.59,1.59,0,0,1-3-1,1.61,1.61,0,0,0-1.08-2.17,1.59,1.59,0,0,1,1-3A1.63,1.63,0,0,0,72,33.54a1.59,1.59,0,0,1,3,1,1.62,1.62,0,0,0,1.1,2.2A1.61,1.61,0,0,1,77,38.72Z"/><path class="cls-1" d="M49.78,10.09a1.6,1.6,0,0,1-1.05-1.9A1.6,1.6,0,0,0,47.67,6a1.61,1.61,0,0,1-.89-2,1.58,1.58,0,0,1,1.9-1,1.6,1.6,0,0,0,2.17-1.07,1.59,1.59,0,0,1,3,1,1.61,1.61,0,0,0,1,2.15,1.59,1.59,0,0,1-1,3,1.6,1.6,0,0,0-2.14,1A1.59,1.59,0,0,1,49.78,10.09Z"/><path class="cls-1" d="M83,17.93a1.6,1.6,0,0,1-1.91,1A1.61,1.61,0,0,0,78.94,20a1.59,1.59,0,0,1-3-1,1.6,1.6,0,0,0-1.08-2.16,1.59,1.59,0,0,1,1-3,1.61,1.61,0,0,0,2.21-1.08,1.58,1.58,0,0,1,3,1,1.62,1.62,0,0,0,1.1,2.2A1.61,1.61,0,0,1,83,17.93Z"/><path class="cls-1" d="M91.85,34.45,90.63,34c-.21-.06-.25-.16-.18-.36q.43-1.24.84-2.49c.07-.22.18-.23.37-.16.81.28,1.63.56,2.44.82.23.08.28.17.2.4-.29.81-.57,1.62-.83,2.44-.08.24-.19.26-.4.18C92.67,34.72,92.26,34.59,91.85,34.45Z"/><path class="cls-1" d="M34.72,9.89c.18-.38.13-1.11.54-1.27s.91.22,1.38.38.85.29,1.27.42c.24.07.27.18.19.4-.28.79-.55,1.59-.81,2.39-.08.24-.17.32-.42.22l-2.4-.81c-.25-.08-.29-.19-.2-.43C34.42,10.79,34.55,10.38,34.72,9.89Z"/><path class="cls-1" d="M77.14,3.43c-.39-.18-1.14-.14-1.31-.56s.24-.94.39-1.43.29-.78.4-1.17.2-.32.46-.22c.78.28,1.56.54,2.35.79.24.08.31.17.22.43-.29.79-.56,1.59-.82,2.39-.08.26-.19.3-.43.2S77.62,3.59,77.14,3.43Z"/><path class="cls-1" d="M67.3,24.38c-.39-.18-1.14-.14-1.31-.56s.24-.94.4-1.43.27-.78.39-1.17c.07-.23.15-.33.42-.23.81.29,1.62.56,2.44.83.2.06.25.15.18.36q-.43,1.23-.84,2.49c-.07.21-.18.23-.37.16Z"/><path class="cls-1" d="M63.1,59.83c.18-.38.14-1.11.55-1.28s.91.23,1.38.38.84.3,1.27.43c.23.07.27.18.19.4-.28.79-.55,1.59-.81,2.39-.08.24-.17.31-.42.22l-2.4-.81c-.25-.08-.3-.19-.2-.43C62.81,60.73,62.94,60.32,63.1,59.83Z"/></g></g></g></svg>