<svg xmlns="http://www.w3.org/2000/svg" viewBox="0 0 94.94 46.07"><defs><style>.cls-1{fill:#c491ff;}</style></defs><g id="Layer_2" data-name="Layer 2"><g id="Layer_1-2" data-name="Layer 1"><path class="cls-1" d="M93.19,37.32H77.77a13,13,0,0,1-6.62-1.8,16.23,16.23,0,0,0-5.6-2,17.39,17.39,0,0,0-2.88-.23H57c-1.24,0-1.75.53-1.76,1.77a.61.61,0,0,0,0,.14c.06.37-.11.44-.45.44H24.2l-.52,0a13.73,13.73,0,0,1-4.95-.94c-.45-.19-.88-.39-1.3-.59a15.68,15.68,0,0,1-6-5,14.34,14.34,0,0,1-1.79-3.43,17.69,17.69,0,0,1-1-4.83,11.12,11.12,0,0,1,4-9.41,9.82,9.82,0,0,1,5.94-2.65A9,9,0,0,1,27,13a6.84,6.84,0,0,1,1.27,3.34,6,6,0,0,1-4.15,6.12A4.38,4.38,0,0,0,21,27.56,4.28,4.28,0,0,0,26.28,31,13.51,13.51,0,0,0,32.83,27a14.25,14.25,0,0,0,3.86-12.62,17,17,0,0,0-3.93-8.21A17.18,17.18,0,0,0,14.29.84,20.5,20.5,0,0,0,4.41,7.65,19.89,19.89,0,0,0,.28,16.89C.15,17.59.13,18.31,0,19v2.49a.54.54,0,0,1,.06.31,24,24,0,0,0,.75,4.54,22.72,22.72,0,0,0,1.07,3.07,24,24,0,0,0,3.45,5.81,24.49,24.49,0,0,0,6,5.32,24,24,0,0,0,8.86,3.32,25.08,25.08,0,0,0,3.59.31H54.92c.2,0,.36,0,.37.28A1.48,1.48,0,0,0,57,46.07H93.23a1.51,1.51,0,0,0,1.71-1.71V39.09A1.59,1.59,0,0,0,93.19,37.32Z"/></g></g></svg>