<svg xmlns="http://www.w3.org/2000/svg" viewBox="0 0 86.56 54.76"><defs><style>.cls-1{fill:#c491ff;}</style></defs><g id="Layer_2" data-name="Layer 2"><g id="Layer_1-2" data-name="Layer 1"><g id="v6t9lB"><path class="cls-1" d="M7.46,15.4a1.62,1.62,0,0,1-1.72-.89,2.77,2.77,0,0,1-.2-1.85A17.26,17.26,0,0,1,8.15,5.28,8.45,8.45,0,0,1,10,3.2a.32.32,0,0,1,.35-.07c1.43.47,2.87.93,4.3,1.41a1.62,1.62,0,0,1,1.22,2.11,7.54,7.54,0,0,1-1.16,2.68,17,17,0,0,1-5.16,5.21A4.78,4.78,0,0,1,7.46,15.4Zm-.61-1.67c0,.39.09.46.4.43a3.55,3.55,0,0,0,1.41-.53,14.59,14.59,0,0,0,3.68-3.19A11.65,11.65,0,0,0,14.42,7.2a2.79,2.79,0,0,0,.25-1.07c0-.29-.09-.37-.38-.35a2.89,2.89,0,0,0-1.14.37A12.76,12.76,0,0,0,9.84,8.78a13.67,13.67,0,0,0-2.59,3.63A3.63,3.63,0,0,0,6.85,13.73Z"/><path class="cls-1" d="M8.75,2.62a17.35,17.35,0,0,0-4.3,8.79c-.15-.36-.28-.66-.4-1-.3-.73-.6-1.45-.91-2.18a1.11,1.11,0,0,1-.08-.54A12.77,12.77,0,0,1,4.14,3.64,5,5,0,0,1,5.63,1.78c.08-.06.15-.13.27-.09Z"/><path class="cls-1" d="M2.07,5.67.63,2.24.06.87A.57.57,0,0,1,.17.2.59.59,0,0,1,.83,0L4.28,1.17s0,0,.08.05A9.28,9.28,0,0,0,2.07,5.67Z"/></g><polygon class="cls-1" points="31.42 27.32 31.42 27.32 31.42 27.32 31.42 27.32"/><path class="cls-1" d="M31.42,27.32h0Z"/><path class="cls-1" d="M31.4,27.34h0Z"/><path class="cls-1" d="M81,4.35c-.62,0-1.21.17-1.82.23-5.74.62-11.49,1.1-17.24,1.59-1.24.11-2.49.13-3.7.35a5.37,5.37,0,0,0-4.33,3.86Q51,19.16,48.06,28a.56.56,0,0,1-.61.47c-2.27,0-4.53.09-6.8.14l-6.3.12c.17-.17.24-.26.32-.34,1.22-1.22,2.45-2.42,3.65-3.65a5.23,5.23,0,0,0,1.52-4.82C39,15.58,38.16,11.29,37.31,7a5.42,5.42,0,0,0-1.24-2.57,5.52,5.52,0,0,0-6.64-1.35,5.62,5.62,0,0,0-2.9,6.31c.64,3.08,1.23,6.17,1.85,9.25a.55.55,0,0,1-.18.57q-1.86,1.83-3.69,3.68c-.23.24-.33.2-.5-.07A12.28,12.28,0,0,0,8.2,18.49a8.93,8.93,0,0,0-5.27,8.16c-.07,3.79,1.79,6.65,4.85,8.72s6.66,2.52,10.3,2.56a.89.89,0,0,1,.85.41q4.37,6.12,8.75,12.22a5.39,5.39,0,0,0,3.53,2.28c3.7.64,7.4,1.28,11.11,1.86a5.5,5.5,0,0,0,1.54-10.9c-2.68-.49-5.38-.92-8.07-1.36a.79.79,0,0,1-.66-.43c-.35-.62-.7-1.23-1.09-1.83-.26-.39-.19-.46.26-.47l16-.32a9.44,9.44,0,0,0,4.67-.9,15.93,15.93,0,0,0,1.9-1.56c3.28-2.61,6.56-5.2,9.89-7.73a1,1,0,0,1,.77-.21l8.56,1.1A6.08,6.08,0,0,0,78.76,30a5.53,5.53,0,0,0,3.92-5.68,5.46,5.46,0,0,0-4.64-5c-3.78-.55-7.56-1.05-11.37-1.41a6.35,6.35,0,0,0-3.17.37l-.67.29a5.44,5.44,0,0,0,.28-.88c.07-.38.29-.49.65-.52,4.17-.36,8.33-.72,12.5-1.11a50.18,50.18,0,0,0,6-.75A5.5,5.5,0,0,0,81,4.35ZM43.22,47a2.22,2.22,0,1,1-.67,4.39l-8-1.34-2.59-.44a2.22,2.22,0,0,1-1.53-.93L23.5,39.08c-.05-.08-.14-.15-.11-.27.82.18,1.63.38,2.45.54a20.06,20.06,0,0,0,3.7.41.72.72,0,0,1,.69.43c.8,1.38,1.65,2.74,2.44,4.14a2.28,2.28,0,0,0,1.79,1.23C37.38,46,40.3,46.53,43.22,47ZM64.28,21.49a2.81,2.81,0,0,1,1.85-.41c2.65.22,5.29.59,7.92.93,1.17.15,2.33.28,3.49.47a2.2,2.2,0,0,1,1.34,3.6,2.08,2.08,0,0,1-1.94.78c-3.19-.38-7.22-.9-10.45-1.33a.63.63,0,0,0-.48.13l-2.66,2-3.88,3,.45-1.9,1-4.59a.82.82,0,0,1,.3-.54C62.26,22.93,63.25,22.18,64.28,21.49Z"/><path class="cls-1" d="M31.43,27.32Z"/></g></g></svg>