<svg xmlns="http://www.w3.org/2000/svg" viewBox="0 0 58.17 71.11"><defs><style>.cls-1{fill:#c491ff;}</style></defs><g id="Layer_2" data-name="Layer 2"><g id="Layer_1-2" data-name="Layer 1"><path class="cls-1" d="M57.75,34.64A4.6,4.6,0,0,0,52.87,33a11.25,11.25,0,0,0-3.82,2.06,10.39,10.39,0,0,0-3.41,4.35c-.35.85-.63,1.73-1,2.56s-.32,2.75-2,2.75c-1.18,0-1.47-2.26-1.69-3-.52-1.74-.93-3.52-1.34-5.3-.32-1.37-.54-2.76-.84-4.13a2.31,2.31,0,0,1,2.62-2.91c1.67.21,3.35.41,5,.66a4.08,4.08,0,0,0,3.41-.92,3.94,3.94,0,0,0,1.49-3.89c-.61-3.07-3.76-3.18-6.31-3.61-3.67-.63-8.48-1.47-11.8.61A6.58,6.58,0,0,0,30.14,26l-.9,3.3,0,0c-1.9-5.81-6.49-19.94-8.38-25.75-.09-.27-.18-.55-.3-.82A4.27,4.27,0,0,0,12.29,3.8a7.45,7.45,0,0,0,.57,3.09c.16.57.38,1.26.62,2.06l6.71,20.34a.29.29,0,0,1-.53.23L9.8,12.23l-1.22-2a4.88,4.88,0,0,0-4.9-2.31c-2.23.42-4,3-3.06,5.18.74,1.72,1.69,3.36,2.59,5,1,1.93,4.27,7.35,5.36,9.26.68,1.21,2.7,4.47,4,6.64a.21.21,0,0,1-.34.26c-1.62-1.72-3.79-4.12-5-5.25a4.08,4.08,0,0,0-1.1-.8,4.49,4.49,0,0,0-3.81,0,3.67,3.67,0,0,0-2,2,4.28,4.28,0,0,0,1.06,5L5.3,38.91c2.26,2.22,4.55,4.41,6.73,6.7A19.76,19.76,0,0,1,14.53,49c.73,1.21,1.28,2.53,1.92,3.81.87,1.75,1.7,3.54,2.64,5.26a15,15,0,0,0,3.81,4.88,2.5,2.5,0,0,1,.7.94c.57,1.63,1.08,3.28,1.62,4.92a3,3,0,0,0,.31.71,3.47,3.47,0,0,0,3,1.61L46,65.44c1.17-.92,1.92-2,1.5-3.6-.26-1-.52-2-.73-2.93A6.14,6.14,0,0,1,48,53.52c.44-.55.86-1.12,1.28-1.69a24.18,24.18,0,0,0,2.63-5.26,34.09,34.09,0,0,1,2.61-5.15A25.41,25.41,0,0,1,57.39,38,2.77,2.77,0,0,0,57.75,34.64Z"/></g></g></svg>