<svg xmlns="http://www.w3.org/2000/svg" viewBox="0 0 52.82 52.76"><defs><style>.cls-1{fill:#c491ff;}</style></defs><g id="Layer_2" data-name="Layer 2"><g id="Layer_1-2" data-name="Layer 1"><path class="cls-1" d="M7.71,21.91l.12.12c2.27,2.27,5.5,5.56,7.76,7.84l1.06-1.05c.46-.48.93-.94,1.43-1.43l0,0,.58-.57.59-.58-.56-.6-.08-.1c-.07-.07-.13-.14-.2-.2L5.81,12.64l0,0a1.46,1.46,0,0,0-.28-.26,3.07,3.07,0,0,0-1.71-.58,2.44,2.44,0,0,0-1.88.9,2.52,2.52,0,0,0,0,3.41Z"/><path class="cls-1" d="M52.82,12.36v0c0-1.87,0-3.75,0-5.62a7.76,7.76,0,0,0-.17-1.63,3.2,3.2,0,0,0-2.85-2.61A3.94,3.94,0,0,0,49,2.37,3.25,3.25,0,0,0,46,4.2a5.88,5.88,0,0,0-.41,2.15c0,3.28,0,6.61,0,9.83v3.35c0,1.25-.33,1.75-1.39,2.13a11.79,11.79,0,0,0-5.56,4.07,12.29,12.29,0,0,0-2.45,9.7A12.12,12.12,0,0,0,39.53,42a1.6,1.6,0,0,1,.54,1.33,1.45,1.45,0,0,1-.84,1.24,1.84,1.84,0,0,1-.84.26.88.88,0,0,1-.56-.21,12,12,0,0,1-3.62-5A14.93,14.93,0,0,1,33,31.73,17.65,17.65,0,0,1,34.2,27,16,16,0,0,1,37.63,22l.56-.57-.54-.6-.12-.13-.18-.19L19.23,2.41,17.58.76A2.8,2.8,0,0,0,15.63,0a2.4,2.4,0,0,0-1.86.79,2.45,2.45,0,0,0,.12,3.64C17.61,8.17,25.14,15.5,29.76,20.06c0,0,0,0,0,.06-4.81,4.82-9.58,9.59-14.17,14.17l-.09.07-3.35-3.53c-.39-.38-.78-.76-1.16-1.15L8.73,27.46,4.49,23.23a2.6,2.6,0,0,0-1.83-.74,2.52,2.52,0,0,0-1.79.72c-.85.86-1.51,2.24.18,3.93l2.09,2.1c6,6,12.14,12.15,18.24,18.22a20.9,20.9,0,0,0,2.41,2,16.93,16.93,0,0,0,8.37,3.22c.63.06,1.27.1,1.9.1A18.33,18.33,0,0,0,39.31,52a19,19,0,0,0,10.36-7.46A18.13,18.13,0,0,0,52.8,34C52.83,26.76,52.82,19.44,52.82,12.36Z"/><path class="cls-1" d="M9.59,12l11,11a2.35,2.35,0,0,0,.34.28h0l0,0,.59.47,3.62-3.55-2-2L20,15.06,16,11.12,7.67,2.75a2.67,2.67,0,0,0-1.91-.83A2.56,2.56,0,0,0,3.36,3.7a2.71,2.71,0,0,0,.89,3Z"/></g></g></svg>