<svg xmlns="http://www.w3.org/2000/svg" viewBox="0 0 65.83 62.93"><defs><style>.cls-1{fill:#c28fff;}</style></defs><g id="Layer_2" data-name="Layer 2"><g id="Layer_1-2" data-name="Layer 1"><path class="cls-1" d="M15.09,26.43c7.11,9.4,26.41,10.85,35.65.07L38.32,10.79a.75.75,0,0,1,0-.64,6.59,6.59,0,0,0-1.27-8.64,6.52,6.52,0,0,0-9.8,8.29,1.16,1.16,0,0,1,0,1.36Z"/><path class="cls-1" d="M58,33.54a7.43,7.43,0,0,0-1.34.14l-2.71-2.93a25.36,25.36,0,0,1-8.73,6.06,30.41,30.41,0,0,1-11.07,2.46A30.79,30.79,0,0,1,26,38.63a28.49,28.49,0,0,1-11-5c-1.2-.91-2.3-2-3.54-3.1L9,33.66a7,7,0,0,0-1.13-.12,7.86,7.86,0,0,0,0,15.72c.14,0,.26,0,.4,0a1.75,1.75,0,0,1,.33.45,21.51,21.51,0,0,0,6.93,7.92A27.31,27.31,0,0,0,25.64,62.1a35.55,35.55,0,0,0,5.32.78,23.24,23.24,0,0,0,4.49-.14,42.12,42.12,0,0,0,6.44-1.13A26.53,26.53,0,0,0,53,55.32a21.87,21.87,0,0,0,4.32-5.85,1.43,1.43,0,0,1,.19-.26c.16,0,.3,0,.46,0a7.86,7.86,0,0,0,0-15.72ZM22.68,49.92a3.8,3.8,0,1,1,3.8-3.79A3.79,3.79,0,0,1,22.68,49.92Zm15.47,5.56a16.79,16.79,0,0,1-10.58,0,1.27,1.27,0,0,1-.74-1.71v0A1.29,1.29,0,0,1,28.41,53a14,14,0,0,0,4.46.69A14.73,14.73,0,0,0,37.31,53a1.26,1.26,0,0,1,1.56.68l0,.09A1.27,1.27,0,0,1,38.15,55.48ZM43,49.92a3.8,3.8,0,1,1,3.79-3.79A3.79,3.79,0,0,1,43,49.92Z"/></g></g></svg>