<svg xmlns="http://www.w3.org/2000/svg" viewBox="0 0 46.29 48.02"><defs><style>.cls-1{fill:#c28fff;}</style></defs><g id="Layer_2" data-name="Layer 2"><g id="Layer_1-2" data-name="Layer 1"><path class="cls-1" d="M7.89,15.24A15.12,15.12,0,0,1,23.09,0,14.91,14.91,0,0,1,34,4.47a14.85,14.85,0,0,1,4.51,10.77,14.5,14.5,0,0,1-3.76,10,15.24,15.24,0,0,1-26.81-10Z"/><path class="cls-1" d="M37.41,28.76A24.27,24.27,0,0,1,46,40.64,5.68,5.68,0,0,1,40.58,48H5.7A5.68,5.68,0,0,1,.27,40.64,24.79,24.79,0,0,1,8.82,28.76a19.62,19.62,0,0,0,28.59,0Z"/></g></g></svg>