<svg xmlns="http://www.w3.org/2000/svg" viewBox="0 0 88.76 48.12"><defs><style>.cls-1{fill:#c28fff;}</style></defs><g id="Layer_2" data-name="Layer 2"><g id="Layer_1-2" data-name="Layer 1"><g id="_9XN4Wn" data-name="9XN4Wn"><path class="cls-1" d="M56.94,40.62c.66,1.71,1.31,3.39,2,5.08s.06,2.43-1.65,2.42L1.91,48H1.59a1.4,1.4,0,0,1-1.5-.92,1.45,1.45,0,0,1,.55-1.67L7.9,38.9l34-30.41.37-.33c1.07-.92,2.05-.7,2.57.6s1,2.6,1.5,3.91c.22.64.44.58.88.22a22.7,22.7,0,0,0,6.25-9.2c.36-.89.64-1.81,1-2.7A1.41,1.41,0,0,1,56.17.07a1.35,1.35,0,0,1,.9,1.7,28.14,28.14,0,0,1-7.53,12.78c-.26.24-.55.45-.83.67-1.1.84-1.1.84-.59,2.18.43,1.12.87,2.24,1.28,3.37a.55.55,0,0,0,.72.43,9.58,9.58,0,0,0,7.33-4.55,1.37,1.37,0,0,1,2-.64,1.33,1.33,0,0,1,.45,2,11.86,11.86,0,0,1-7.17,5.51,5.71,5.71,0,0,1-.71.19c-1.36.33-1.36.33-.85,1.69.46,1.2.95,2.39,1.36,3.61.2.56.37.69,1,.43a60.18,60.18,0,0,1,12.5-4,28,28,0,0,1,10.67-.32,12.63,12.63,0,0,1,5.45,2.33,1.38,1.38,0,0,1,.36,2,1.35,1.35,0,0,1-1.89.38c-3-2.2-6.43-2.46-10-2.17a53.47,53.47,0,0,0-16.39,4.49c-.45.19-.38.4-.25.74.57,1.45,1.15,2.9,1.66,4.38.19.55.43.67,1,.57a23.9,23.9,0,0,1,8.64-.16,11.63,11.63,0,0,1,6.46,3.14,6.16,6.16,0,0,1,.75.87,1.35,1.35,0,0,1-.25,1.85,1.27,1.27,0,0,1-1.79,0c-2.75-3.16-6.41-3.43-10.21-3.29A19.62,19.62,0,0,0,56.94,40.62ZM42.7,11.51c-.18.16-.39.32-.58.5-2.87,2.57-5.73,5.16-8.62,7.71A.94.94,0,0,0,33.21,21q4.53,11.79,9,23.62a1,1,0,0,0,1.07.73c3.85,0,7.71,0,11.56,0,.26,0,.54.08.67,0Q49.1,28.39,42.7,11.51Z"/><path class="cls-1" d="M76,20.67c.42-.65.84-1.35,1.33-2a.88.88,0,0,0,.1-1c-.29-.67-.55-1.37-.82-2A1.43,1.43,0,0,1,76.83,14a1.38,1.38,0,0,1,1.51-.34c.57.18,1.18.26,1.73.49a1.36,1.36,0,0,0,1.69-.34c.42-.42.92-.76,1.38-1.15a1.35,1.35,0,0,1,1.52-.25,1.42,1.42,0,0,1,.9,1.35c0,.68.09,1.37.06,2.05a1.08,1.08,0,0,0,.67,1.09c.62.35,1.21.74,1.8,1.15a1.38,1.38,0,0,1-.24,2.49c-.73.32-1.48.57-2.23.83a.79.79,0,0,0-.62.66c-.14.72-.35,1.43-.54,2.14a1.44,1.44,0,0,1-1.19,1.21,1.31,1.31,0,0,1-1.46-.69c-.94-1.83-2.37-2.32-4.35-2A1.38,1.38,0,0,1,76,20.67Z"/><path class="cls-1" d="M70.06,17.22c-.68-.27-.81-.92-1-1.5-.47-1.21-.47-1.21-1.71-.75a4.09,4.09,0,0,1-1,.32,1.37,1.37,0,0,1-.88-2.56,12.12,12.12,0,0,1,1.67-.67c.37-.13.45-.3.29-.66A12.76,12.76,0,0,1,66.83,10a1.4,1.4,0,1,1,2.61-1c.07.15.13.3.19.46.57,1.47.57,1.47,2.09.9l.46-.17a1.38,1.38,0,0,1,1,2.58,11,11,0,0,1-1.53.6c-.39.12-.44.3-.29.66A12.9,12.9,0,0,1,72,15.6a1.26,1.26,0,0,1-.43,1.4A1.37,1.37,0,0,1,70.06,17.22Z"/><path class="cls-1" d="M61.73,8a1.38,1.38,0,0,1-1.83.74A1.39,1.39,0,0,1,61,6.12,1.37,1.37,0,0,1,61.73,8Z"/><path class="cls-1" d="M73.78,34.56a1.38,1.38,0,1,1,1.14-2.51,1.38,1.38,0,0,1-1.14,2.51Z"/></g></g></g></svg>