<svg xmlns="http://www.w3.org/2000/svg" viewBox="0 0 82.99 35.51"><defs><style>.cls-1{fill:#c28fff;}</style></defs><g id="Layer_2" data-name="Layer 2"><g id="Layer_1-2" data-name="Layer 1"><path class="cls-1" d="M83,17.06A17.75,17.75,0,0,0,52.67,5.22,2.61,2.61,0,0,1,50.83,6H32.16a2.61,2.61,0,0,1-1.84-.77,17.76,17.76,0,1,0,0,25.08,2.61,2.61,0,0,1,1.85-.78H50.83a2.58,2.58,0,0,1,1.85.78A17.75,17.75,0,0,0,83,17.06Zm-56.74.69a2.93,2.93,0,0,1-2.92,2.93H20.68v2.64a2.93,2.93,0,0,1-5.85,0V20.68H12.19a2.93,2.93,0,0,1-2.92-2.93h0a2.92,2.92,0,0,1,2.92-2.92h2.64V12.19a2.93,2.93,0,0,1,5.85,0v2.64h2.64a2.92,2.92,0,0,1,2.92,2.92Zm36.5,0A3.23,3.23,0,1,1,66,14.55,3.22,3.22,0,0,1,62.74,17.77ZM69,24.9a3.23,3.23,0,1,1,3.23-3.22A3.23,3.23,0,0,1,69,24.9Z"/></g></g></svg>