<svg xmlns="http://www.w3.org/2000/svg" viewBox="0 0 94.5 45.86"><defs><style>.cls-1{fill:#c28fff;}</style></defs><g id="Layer_2" data-name="Layer 2"><g id="Layer_1-2" data-name="Layer 1"><path class="cls-1" d="M92.75,37.14H77.41a12.85,12.85,0,0,1-6.59-1.79,16.53,16.53,0,0,0-5.58-2,17.15,17.15,0,0,0-2.86-.23H56.77c-1.23,0-1.74.53-1.74,1.76A.75.75,0,0,0,55,35c.06.36-.11.43-.45.43h-31a13.85,13.85,0,0,1-4.93-1c-.45-.18-.88-.38-1.29-.58a15.74,15.74,0,0,1-6-4.93,14.34,14.34,0,0,1-1.78-3.41,17.54,17.54,0,0,1-1-4.81,11.15,11.15,0,0,1,.3-3.54,11.29,11.29,0,0,1,3.66-5.82,9.84,9.84,0,0,1,5.91-2.64A8.89,8.89,0,0,1,26.85,13a6.77,6.77,0,0,1,1.27,3.33A6,6,0,0,1,24,22.36a4.37,4.37,0,0,0-3.09,5.07,4.27,4.27,0,0,0,5.26,3.38,13.5,13.5,0,0,0,6.52-3.94,14.17,14.17,0,0,0,3.84-12.56,17,17,0,0,0-3.91-8.17A17.1,17.1,0,0,0,14.23.84,20.33,20.33,0,0,0,4.39,7.61a19.93,19.93,0,0,0-4.12,9.2c-.12.7-.14,1.42-.27,2.12V21.4a.59.59,0,0,1,.06.32,23.07,23.07,0,0,0,.75,4.52,23.87,23.87,0,0,0,1.06,3.05,23.64,23.64,0,0,0,3.44,5.78,24,24,0,0,0,14.82,8.6A23.45,23.45,0,0,0,23.7,44h31c.2,0,.36,0,.37.29,0,1.08.59,1.58,1.7,1.58H92.79a1.5,1.5,0,0,0,1.71-1.7V38.91A1.59,1.59,0,0,0,92.75,37.14Zm-81-31.78a16.32,16.32,0,0,1,5.83-1.94A13.5,13.5,0,0,1,28.43,6.48a14.14,14.14,0,0,1,5,8,10.83,10.83,0,0,1-2.55,9.75,11.19,11.19,0,0,1-5.33,3.54A1.18,1.18,0,0,1,24,26.87a1.06,1.06,0,0,1,.84-1.19,9.72,9.72,0,0,0,2.8-1.37,8.71,8.71,0,0,0,2.74-11.06A12.21,12.21,0,0,0,20.26,6a12.39,12.39,0,0,0-9.78,3.09,13.78,13.78,0,0,0-5.11,9.7l-2.26,1A16.87,16.87,0,0,1,11.73,5.36ZM4.65,27.94l2-1a17.25,17.25,0,0,0,2.44,4.28l-1.59,1.6A19.73,19.73,0,0,1,4.65,27.94Zm8.81,10.13,1.63-1.75a17.78,17.78,0,0,0,7.21,2.14l-.93,2.23A19.9,19.9,0,0,1,13.46,38.07ZM36,40.87H33.65l-3.38,0,1-2.34H38l-1,2.33Zm18.62,0H46l1-2.33h7.55c.48,0,.48,0,.48.47s0,1,0,1.49C55.05,40.82,54.93,40.88,54.64,40.88Z"/></g></g></svg>