<svg xmlns="http://www.w3.org/2000/svg" viewBox="0 0 51.52 51.53"><defs><style>.cls-1{fill:#c28fff;}</style></defs><g id="Layer_2" data-name="Layer 2"><g id="Layer_1-2" data-name="Layer 1"><path class="cls-1" d="M0,24.66c.2-.64.35-1.3.61-1.91a7.09,7.09,0,0,1,4.62-4.27A7.56,7.56,0,0,1,12.77,20c.27.24.47.13.71,0l10.06-5L36,8.75c.1-.93.16-1.84.31-2.73a6.82,6.82,0,0,1,1.45-3.1A7.37,7.37,0,0,1,42.14.17,7.69,7.69,0,0,1,47.59,1a7.26,7.26,0,0,1,2.92,2.92,7.41,7.41,0,0,1,1,3.45,7.38,7.38,0,0,1-1.52,5,7.82,7.82,0,0,1-4.72,3,7.57,7.57,0,0,1-6.56-1.79c-.28-.23-.48-.11-.71,0L26.26,19.37,15.42,24.79s0,0,0,.06c0,.62-.2,1.35.07,1.83s1,.57,1.51.84Q27.46,32.76,37.93,38a.66.66,0,0,0,.86-.12,7.49,7.49,0,0,1,4.7-1.77,7.8,7.8,0,0,1,5.08,1.6,7.67,7.67,0,0,1,2.06,9.6,7.64,7.64,0,0,1-5.45,4l-1,.19h-.91l-.93-.2A7.41,7.41,0,0,1,36.43,46a22,22,0,0,1-.53-3.26L24.37,37,13.48,31.55c-.25-.13-.45-.22-.74,0A7.38,7.38,0,0,1,6.22,33.4a7.33,7.33,0,0,1-5.4-4.13A19.59,19.59,0,0,1,0,27Z"/></g></g></svg>