<svg xmlns="http://www.w3.org/2000/svg" viewBox="0 0 74.79 47.01"><defs><style>.cls-1{fill:none;}.cls-2{fill:#c28fff;}</style></defs><g id="Layer_2" data-name="Layer 2"><g id="Layer_1-2" data-name="Layer 1"><path class="cls-1" d="M66.21,19.39a4.12,4.12,0,1,0,4.11,4.12A4.11,4.11,0,0,0,66.21,19.39Z"/><path class="cls-2" d="M3.26,0A3.26,3.26,0,0,0,0,3.26V43.75A3.26,3.26,0,0,0,3.26,47h53V0ZM51.85,42.64H4.37V4.37H51.85Z"/><path class="cls-2" d="M71.53,0H58V47H71.53a3.26,3.26,0,0,0,3.26-3.26V3.26A3.26,3.26,0,0,0,71.53,0ZM66.21,27.62a4.12,4.12,0,1,1,4.11-4.11A4.11,4.11,0,0,1,66.21,27.62Z"/></g></g></svg>